<svg preserveAspectRatio="none" width="100%" height="100%" overflow="visible" style="display: block;" viewBox="0 0 57 22" fill="none" xmlns="http://www.w3.org/2000/svg">
<g id="Grupo 12">
<path id="Caminho 2" d="M8.80031 4.77934C9.65486 4.49515 10.5599 4.39529 11.4559 4.48636C12.3518 4.57743 13.2183 4.85735 13.9982 5.30767C14.7781 5.758 15.4537 6.3685 15.9805 7.09894C16.5073 7.82938 16.8732 8.66316 17.0543 9.54534L21.4173 8.65534C21.1104 7.15552 20.4888 5.73785 19.5936 4.4959C18.6985 3.25396 17.5501 2.216 16.2243 1.45051C14.8985 0.685029 13.4254 0.209439 11.9023 0.0551335C10.3792 -0.0991723 8.8407 0.0713154 7.38832 0.555344L8.80031 4.77934Z" fill="var(--fill-0, #FFBE00)"/>
<path id="Caminho 3" d="M3.6513 18.9193L6.6003 15.5833C5.92536 14.9865 5.38493 14.253 5.01478 13.4315C4.64463 12.6101 4.45322 11.7193 4.45322 10.8183C4.45322 9.91734 4.64463 9.02661 5.01478 8.20514C5.38493 7.38368 5.92536 6.65022 6.6003 6.05334L3.6483 2.71734C2.5014 3.73224 1.5831 4.97913 0.954163 6.37549C0.325228 7.77186 0 9.28587 0 10.8173C0 12.3488 0.325228 13.8628 0.954163 15.2592C1.5831 16.6556 2.5014 17.9024 3.6483 18.9173" fill="var(--fill-0, #0096DB)"/>
<path id="Caminho 4" d="M17.0533 12.0944C16.8718 12.9763 16.5055 13.8097 15.9784 14.5397C15.4513 15.2697 14.7755 15.8797 13.9955 16.3295C13.2155 16.7793 12.349 17.0586 11.4532 17.1491C10.5573 17.2395 9.65248 17.1391 8.79829 16.8543L7.3853 21.0793C8.83714 21.5628 10.3749 21.7331 11.8974 21.5792C13.4198 21.4252 14.8924 20.9504 16.218 20.186C17.5436 19.4217 18.6923 18.3852 19.5883 17.1447C20.4843 15.9043 21.1073 14.488 21.4163 12.9893L17.0533 12.0944Z" fill="var(--fill-0, #E82717)"/>
<path id="Caminho 5" d="M25.2334 15.7244C25.0636 15.4426 24.9119 15.1504 24.7793 14.8494C24.1015 13.2636 24.0681 11.4763 24.686 9.86632C25.3039 8.25635 26.5246 6.95037 28.0893 6.22534C29.0672 5.80508 30.1319 5.62605 31.1935 5.70332C32.2551 5.7806 33.2826 6.1119 34.1894 6.66934C35.4404 7.42834 36.3999 8.58608 36.9134 9.95635C36.9964 10.1503 37.0693 10.3563 37.1413 10.5343L25.2334 15.7244ZM29.2093 8.80036C28.5379 9.07947 27.978 9.57337 27.6174 10.2047C27.2567 10.8361 27.1157 11.5692 27.2163 12.2894L33.2053 9.71135C32.7536 9.11155 32.1041 8.69102 31.372 8.52428C30.6398 8.35753 29.8723 8.45534 29.2053 8.80036M33.9483 14.4084L33.8243 14.3244C33.4366 14.9316 32.8714 15.4047 32.2053 15.6794C31.657 15.97 31.035 16.092 30.4175 16.0299C29.8 15.9678 29.2147 15.7244 28.7353 15.3304L28.6533 15.4554L27.1344 17.7283C27.5121 17.9911 27.9167 18.213 28.3413 18.3904C29.7416 18.9534 31.2927 19.0189 32.7355 18.5759C34.1783 18.1329 35.4253 17.2082 36.2683 15.9563L33.9483 14.4084Z" fill="var(--fill-0, #1A1818)"/>
<path id="Caminho 6" d="M41.3023 2.87834V15.5193L43.2673 16.3193L42.1513 18.9193L39.9824 18.0193C39.5465 17.8291 39.175 17.5164 38.9133 17.1193C38.6237 16.6495 38.4781 16.1051 38.4943 15.5533V2.87834H41.3023Z" fill="var(--fill-0, #1A1818)"/>
<path id="Caminho 7" d="M46.3913 12.2953C46.3908 11.7836 46.5001 11.2778 46.712 10.8119C46.9239 10.3461 47.2333 9.93124 47.6193 9.59534L45.6034 7.34836C44.9027 7.96724 44.3414 8.7279 43.9569 9.57999C43.5723 10.4321 43.3732 11.3561 43.3726 12.291C43.3721 13.2258 43.57 14.1502 43.9536 15.0027C44.3371 15.8553 44.8973 16.6166 45.5972 17.2364L47.6103 14.9864C47.2268 14.6502 46.9196 14.2359 46.7093 13.7712C46.4991 13.3066 46.3906 12.8024 46.3913 12.2924" fill="var(--fill-0, #1A1818)"/>
<path id="Caminho 8" d="M49.9733 15.8824C49.5875 15.8815 49.2044 15.8191 48.8383 15.6974L47.8753 18.5594C48.7612 18.8562 49.7 18.9618 50.6297 18.8691C51.5594 18.7764 52.4589 18.4876 53.2687 18.0217C54.0785 17.5557 54.7803 16.9233 55.3277 16.1662C55.8751 15.4091 56.2556 14.5444 56.4442 13.6293L53.4853 13.0294C53.3178 13.8369 52.8771 14.5619 52.2373 15.0824C51.5976 15.6028 50.798 15.8867 49.9733 15.8864" fill="var(--fill-0, #1A1818)"/>
<path id="Caminho 9" d="M49.9813 5.69733C49.27 5.69605 48.5632 5.80986 47.8883 6.03434L48.8423 8.89934C49.3236 8.73921 49.8335 8.68303 50.3381 8.73453C50.8427 8.78604 51.3306 8.94405 51.7696 9.19811C52.2087 9.45217 52.5888 9.79652 52.8849 10.2084C53.181 10.6202 53.3863 11.0902 53.4873 11.5873L56.4463 10.9873C56.1432 9.49567 55.3343 8.15445 54.1562 7.19053C52.9782 6.2266 51.5034 5.69912 49.9813 5.69733Z" fill="var(--fill-0, #1A1818)"/>
</g>
</svg>
