<svg preserveAspectRatio="none" width="100%" height="100%" overflow="visible" style="display: block;" viewBox="0 0 32 25" fill="none" xmlns="http://www.w3.org/2000/svg">
<g id="Grupo 14">
<path id="Caminho 10" d="M5.3995 21.973C5.30791 21.8816 5.1987 21.8098 5.0785 21.762C4.94896 21.7109 4.81074 21.6854 4.6715 21.687C4.5901 21.6872 4.50885 21.6939 4.4285 21.707C4.34361 21.7206 4.26068 21.7445 4.1815 21.778C4.09842 21.8136 4.02095 21.8611 3.9515 21.919C3.87535 21.9829 3.81104 22.0598 3.7615 22.146C3.67619 22.0038 3.55428 21.8871 3.4085 21.808C3.25203 21.7246 3.0768 21.6826 2.8995 21.686C2.83248 21.6861 2.76558 21.6918 2.6995 21.703C2.63074 21.7157 2.56364 21.7361 2.4995 21.764C2.35183 21.826 2.22585 21.9304 2.1375 22.064V21.749H1.5965V24.326H2.1435V22.903C2.14175 22.8032 2.15941 22.704 2.1955 22.611C2.22675 22.5309 2.27405 22.4581 2.3345 22.397C2.39138 22.3402 2.45951 22.2959 2.5345 22.267C2.61446 22.2372 2.69918 22.2223 2.7845 22.223C2.86437 22.2185 2.94425 22.2318 3.0183 22.2621C3.09235 22.2923 3.1587 22.3388 3.2125 22.398C3.32237 22.5406 3.37642 22.7184 3.3645 22.898V24.332H3.9115V22.903C3.90967 22.8032 3.92733 22.704 3.9635 22.611C3.9947 22.5309 4.04201 22.4581 4.1025 22.397C4.15939 22.3402 4.22751 22.2959 4.3025 22.267C4.38246 22.2372 4.46718 22.2223 4.5525 22.223C4.63236 22.2185 4.71222 22.2319 4.78626 22.2622C4.8603 22.2924 4.92666 22.3389 4.9805 22.398C5.09037 22.5406 5.14442 22.7184 5.1325 22.898V24.332H5.6795V22.713C5.68117 22.5716 5.65606 22.4311 5.6055 22.299C5.55889 22.1778 5.48774 22.0675 5.3965 21.975" fill="var(--fill-0, #161615)"/>
<path id="Caminho 11" d="M8.2825 22.063C8.19249 21.9479 8.07853 21.8537 7.9485 21.787C7.80022 21.7158 7.63691 21.6815 7.4725 21.687C7.30221 21.6854 7.13338 21.7184 6.97625 21.7841C6.81913 21.8498 6.677 21.9467 6.5585 22.069C6.43979 22.1925 6.34667 22.3383 6.2845 22.498C6.15187 22.8489 6.15187 23.2361 6.2845 23.587C6.34667 23.7467 6.43979 23.8925 6.5585 24.016C6.67703 24.1383 6.81917 24.2352 6.97629 24.3008C7.1334 24.3665 7.30222 24.3996 7.4725 24.398C7.63687 24.4031 7.80008 24.3688 7.9485 24.298C8.0786 24.2323 8.19263 24.1387 8.2825 24.024V24.333H8.8475V21.756H8.2855L8.2825 22.063ZM8.2605 23.363C8.22514 23.4596 8.17111 23.5483 8.1015 23.624C8.03258 23.6979 7.94918 23.7568 7.8565 23.797C7.7545 23.8396 7.64505 23.8616 7.5345 23.8616C7.42395 23.8616 7.3145 23.8396 7.2125 23.797C7.12006 23.7556 7.03729 23.6953 6.9695 23.62C6.90197 23.5434 6.85 23.4544 6.8165 23.358C6.7448 23.1507 6.7448 22.9253 6.8165 22.718C6.85 22.6216 6.90197 22.5326 6.9695 22.456C7.03717 22.3803 7.11995 22.3197 7.2125 22.278C7.31452 22.2354 7.42396 22.2135 7.5345 22.2135C7.64504 22.2135 7.75449 22.2354 7.8565 22.278C7.94919 22.3182 8.03259 22.3771 8.1015 22.451C8.17113 22.5267 8.22516 22.6154 8.2605 22.712C8.3357 22.9242 8.3357 23.1558 8.2605 23.368" fill="var(--fill-0, #161615)"/>
<path id="Caminho 12" d="M11.4285 23.039C11.2336 22.9018 11.0066 22.8171 10.7695 22.793L10.5035 22.753C10.4442 22.7443 10.3885 22.734 10.3365 22.722C10.2896 22.7124 10.2442 22.6966 10.2015 22.675C10.1661 22.6572 10.1354 22.6316 10.1115 22.6C10.0881 22.5671 10.0762 22.5274 10.0775 22.487C10.0774 22.442 10.0893 22.3978 10.1117 22.3588C10.1342 22.3199 10.1665 22.2875 10.2055 22.265C10.3144 22.2024 10.4391 22.1729 10.5645 22.18C10.6443 22.18 10.724 22.1874 10.8025 22.202C10.8775 22.2157 10.9516 22.2337 11.0245 22.256C11.0896 22.2756 11.1534 22.2993 11.2155 22.327C11.2651 22.3491 11.3135 22.3738 11.3605 22.401L11.6025 21.963C11.4568 21.8723 11.2979 21.8048 11.1315 21.763C10.9444 21.7146 10.7518 21.6907 10.5585 21.692C10.4085 21.6901 10.259 21.7096 10.1145 21.75C9.99368 21.7835 9.8801 21.8391 9.7795 21.914C9.68916 21.9826 9.61648 22.0717 9.5675 22.174C9.51695 22.2815 9.49165 22.3992 9.4935 22.518C9.4909 22.6126 9.50948 22.7066 9.54789 22.7931C9.5863 22.8796 9.64357 22.9565 9.7155 23.018C9.90426 23.1625 10.1306 23.2496 10.3675 23.269L10.6365 23.304C10.7553 23.3131 10.8708 23.3471 10.9755 23.404C11.0079 23.4222 11.0349 23.4486 11.0538 23.4806C11.0728 23.5125 11.083 23.5489 11.0835 23.586C11.083 23.6344 11.0688 23.6816 11.0426 23.7223C11.0165 23.763 10.9793 23.7955 10.9355 23.816C10.799 23.8806 10.6483 23.9099 10.4975 23.901C10.4024 23.9017 10.3074 23.8944 10.2135 23.879C10.1357 23.8661 10.0591 23.8467 9.9845 23.821C9.92007 23.7991 9.8578 23.7714 9.7985 23.738C9.74565 23.7081 9.69487 23.6747 9.6465 23.638L9.3855 24.06C9.47585 24.1284 9.57425 24.1855 9.6785 24.23C9.77573 24.2711 9.87604 24.3046 9.9785 24.33C10.0705 24.3529 10.1641 24.369 10.2585 24.378C10.3465 24.386 10.4235 24.39 10.4895 24.39C10.6582 24.3925 10.8265 24.3716 10.9895 24.328C11.1222 24.2932 11.2473 24.2342 11.3585 24.154C11.4543 24.0842 11.5327 23.9931 11.5875 23.888C11.6408 23.7827 11.6679 23.666 11.6665 23.548C11.6712 23.4494 11.6521 23.3512 11.6109 23.2616C11.5696 23.1719 11.5074 23.0935 11.4295 23.033" fill="var(--fill-0, #161615)"/>
<path id="Caminho 13" d="M16.6915 22.063C16.5848 21.9438 16.4535 21.8492 16.3065 21.786C16.1509 21.7187 15.983 21.6847 15.8135 21.686C15.6352 21.6844 15.4584 21.7184 15.2935 21.786C15.1422 21.8493 15.006 21.9437 14.8935 22.063C14.7775 22.1868 14.6878 22.3327 14.6295 22.492C14.5651 22.6685 14.5333 22.8552 14.5355 23.043C14.5339 23.2333 14.5678 23.4222 14.6355 23.6C14.6956 23.7599 14.7882 23.9057 14.9075 24.028C15.0259 24.1474 15.1679 24.2408 15.3245 24.302C15.4941 24.3693 15.6751 24.4032 15.8575 24.402C16.0465 24.4029 16.2346 24.3756 16.4155 24.321C16.5999 24.2625 16.7701 24.1665 16.9155 24.039L16.6355 23.639C16.5285 23.7246 16.4083 23.7921 16.2795 23.839C16.155 23.8855 16.0233 23.9095 15.8905 23.91C15.8011 23.9103 15.7122 23.8975 15.6265 23.872C15.5435 23.8477 15.4658 23.808 15.3975 23.755C15.327 23.7 15.2676 23.6322 15.2225 23.555C15.1704 23.4623 15.1364 23.3605 15.1225 23.255H17.0225C17.0225 23.223 17.0285 23.189 17.0305 23.155C17.0325 23.121 17.0305 23.083 17.0305 23.047C17.0328 22.8598 17.0023 22.6737 16.9405 22.497C16.8855 22.3396 16.8006 22.1942 16.6905 22.069M15.1185 22.829C15.1314 22.7403 15.1566 22.6538 15.1935 22.572C15.2276 22.4976 15.2747 22.4299 15.3325 22.372C15.3895 22.3153 15.4576 22.2711 15.5325 22.242C15.6182 22.21 15.7091 22.1944 15.8005 22.196C15.881 22.193 15.9612 22.2063 16.0365 22.235C16.1117 22.2636 16.1804 22.3072 16.2385 22.363C16.3598 22.491 16.4354 22.6556 16.4535 22.831L15.1185 22.829Z" fill="var(--fill-0, #161615)"/>
<path id="Caminho 14" d="M24.1595 22.063C24.0698 21.948 23.9562 21.8538 23.8265 21.787C23.6782 21.7158 23.5149 21.6815 23.3505 21.687C23.1802 21.6854 23.0114 21.7184 22.8542 21.7841C22.6971 21.8498 22.555 21.9467 22.4365 22.069C22.3178 22.1925 22.2247 22.3383 22.1625 22.498C22.0299 22.8489 22.0299 23.2361 22.1625 23.587C22.2247 23.7467 22.3178 23.8925 22.4365 24.016C22.555 24.1383 22.6972 24.2352 22.8543 24.3008C23.0114 24.3665 23.1802 24.3996 23.3505 24.398C23.5149 24.4031 23.6781 24.3688 23.8265 24.298C23.9563 24.2322 24.0699 24.1386 24.1595 24.024V24.333H24.7215V21.756H24.1595V22.063ZM24.1385 23.363C24.1031 23.4596 24.0491 23.5483 23.9795 23.624C23.9106 23.6979 23.8272 23.7568 23.7345 23.797C23.6325 23.8396 23.5231 23.8616 23.4125 23.8616C23.302 23.8616 23.1925 23.8396 23.0905 23.797C22.9981 23.7556 22.9153 23.6953 22.8475 23.62C22.78 23.5434 22.728 23.4544 22.6945 23.358C22.6227 23.1507 22.6227 22.9253 22.6945 22.718C22.728 22.6216 22.78 22.5326 22.8475 22.456C22.9152 22.3803 22.9979 22.3197 23.0905 22.278C23.1925 22.2354 23.302 22.2134 23.4125 22.2134C23.5231 22.2134 23.6325 22.2354 23.7345 22.278C23.8272 22.3182 23.9106 22.3771 23.9795 22.451C24.0491 22.5267 24.1032 22.6154 24.1385 22.712C24.2137 22.9242 24.2137 23.1558 24.1385 23.368" fill="var(--fill-0, #161615)"/>
<path id="Caminho 15" d="M13.8395 23.817C13.754 23.8501 13.6632 23.8673 13.5715 23.868C13.517 23.8685 13.4628 23.8594 13.4115 23.841C13.3624 23.8232 13.3182 23.7941 13.2825 23.756C13.2433 23.7131 13.2136 23.6623 13.1955 23.607C13.1725 23.5357 13.1616 23.461 13.1635 23.386V22.264H14.0635V21.753H13.1635V20.973H12.5985V21.753H12.0825V22.264H12.5965V23.396C12.585 23.532 12.6005 23.6689 12.6423 23.7988C12.684 23.9287 12.751 24.0491 12.8395 24.153C12.9309 24.2374 13.0384 24.3025 13.1557 24.3442C13.2729 24.386 13.3973 24.4036 13.5215 24.396C13.6715 24.3984 13.8207 24.373 13.9615 24.321C14.0441 24.2891 14.1243 24.2513 14.2015 24.208L14.0095 23.737C13.954 23.7668 13.8965 23.7928 13.8375 23.815" fill="var(--fill-0, #161615)"/>
<path id="Caminho 16" d="M18.9185 21.687C18.7713 21.6848 18.6254 21.7141 18.4905 21.773C18.3587 21.8507 18.2486 21.9604 18.1705 22.092V21.754H17.6605V24.331H18.1765V22.913C18.175 22.8134 18.1906 22.7144 18.2225 22.62C18.2495 22.5397 18.2923 22.4655 18.3485 22.402C18.402 22.3428 18.4684 22.2966 18.5425 22.267C18.6211 22.2359 18.705 22.2203 18.7895 22.221C18.8638 22.2215 18.9378 22.2296 19.0105 22.245C19.0488 22.2526 19.0865 22.2626 19.1235 22.275L19.2895 21.737C19.2444 21.7222 19.1983 21.7105 19.1515 21.702C19.0744 21.6899 18.9965 21.6842 18.9185 21.685" fill="var(--fill-0, #161615)"/>
<path id="Caminho 17" d="M26.7275 21.687C26.5803 21.6848 26.4344 21.7141 26.2995 21.773C26.1677 21.8507 26.0576 21.9604 25.9795 22.092V21.754H25.4695V24.331H25.9855V22.913C25.984 22.8134 25.9996 22.7143 26.0315 22.62C26.0585 22.5396 26.1013 22.4655 26.1575 22.402C26.211 22.3428 26.2774 22.2966 26.3515 22.267C26.4301 22.2359 26.514 22.2203 26.5985 22.221C26.6728 22.2215 26.7468 22.2296 26.8195 22.245C26.8578 22.2526 26.8955 22.2626 26.9325 22.275L27.0985 21.737C27.0534 21.7222 27.0073 21.7105 26.9605 21.702C26.8834 21.6899 26.8055 21.6842 26.7275 21.685" fill="var(--fill-0, #161615)"/>
<path id="Caminho 18" d="M29.3535 20.707V22.066C29.2635 21.9509 29.1495 21.8567 29.0195 21.79C28.8712 21.7188 28.7079 21.6845 28.5435 21.69C28.3732 21.6884 28.2044 21.7215 28.0473 21.7872C27.8902 21.8528 27.748 21.9497 27.6295 22.072C27.5108 22.1956 27.4177 22.3413 27.3555 22.501C27.2227 22.8519 27.2227 23.2392 27.3555 23.59C27.4177 23.7497 27.5108 23.8955 27.6295 24.019C27.748 24.1413 27.8902 24.2382 28.0473 24.3038C28.2044 24.3695 28.3732 24.4026 28.5435 24.401C28.7079 24.4061 28.8711 24.3718 29.0195 24.301C29.1496 24.2353 29.2637 24.1418 29.3535 24.027V24.336H29.9155V20.712L29.3535 20.707ZM29.3315 23.371C29.2961 23.4676 29.2421 23.5563 29.1725 23.632C29.1036 23.7059 29.0202 23.7648 28.9275 23.805C28.8255 23.8476 28.716 23.8695 28.6055 23.8695C28.495 23.8695 28.3855 23.8476 28.2835 23.805C28.1911 23.7636 28.1083 23.7033 28.0405 23.628C27.973 23.5514 27.921 23.4624 27.8875 23.366C27.8157 23.1587 27.8157 22.9333 27.8875 22.726C27.921 22.6296 27.973 22.5406 28.0405 22.464C28.1082 22.3883 28.1909 22.3277 28.2835 22.286C28.3855 22.2434 28.495 22.2214 28.6055 22.2214C28.7161 22.2214 28.8255 22.2434 28.9275 22.286C29.0202 22.3262 29.1036 22.3851 29.1725 22.459C29.2421 22.5347 29.2962 22.6234 29.3315 22.72C29.4067 22.9322 29.4067 23.1638 29.3315 23.376" fill="var(--fill-0, #161615)"/>
<path id="Caminho 19" d="M20.2595 22.447C20.332 22.3735 20.4188 22.3157 20.5145 22.277C20.6162 22.2363 20.725 22.216 20.8345 22.217C20.9545 22.2157 21.0737 22.2361 21.1865 22.277C21.287 22.3135 21.3797 22.3688 21.4595 22.44L21.7305 21.99C21.6264 21.9071 21.5109 21.8398 21.3875 21.79C21.0321 21.6521 20.6379 21.6521 20.2825 21.79C20.1191 21.8552 19.9703 21.952 19.8445 22.075C19.7208 22.1975 19.6225 22.3433 19.5555 22.504C19.4154 22.849 19.4154 23.235 19.5555 23.58C19.6225 23.7407 19.7208 23.8865 19.8445 24.009C19.9703 24.132 20.1191 24.2288 20.2825 24.294C20.6379 24.432 21.0321 24.432 21.3875 24.294C21.5109 24.2443 21.6264 24.1769 21.7305 24.094L21.4595 23.644C21.3796 23.7151 21.287 23.7704 21.1865 23.807C21.0738 23.8483 20.9546 23.869 20.8345 23.868C20.7249 23.8688 20.6162 23.8481 20.5145 23.807C20.4189 23.7687 20.3321 23.7111 20.2595 23.638C20.1861 23.5631 20.1283 23.4744 20.0895 23.377C20.007 23.1613 20.007 22.9227 20.0895 22.707C20.1283 22.6096 20.1861 22.5209 20.2595 22.446" fill="var(--fill-0, #161615)"/>
<path id="Caminho 20" d="M31.0995 23.953C31.1356 23.9528 31.1713 23.96 31.2045 23.974C31.2364 23.9871 31.2656 24.0061 31.2905 24.03C31.3149 24.0537 31.3346 24.0819 31.3485 24.113C31.3619 24.1446 31.3687 24.1786 31.3687 24.213C31.3687 24.2474 31.3619 24.2813 31.3485 24.313C31.3274 24.3614 31.2925 24.4025 31.2483 24.4313C31.204 24.4601 31.1523 24.4753 31.0995 24.475C31.0628 24.4752 31.0264 24.468 30.9925 24.454C30.9604 24.4407 30.9312 24.4214 30.9065 24.397C30.8822 24.373 30.8629 24.3444 30.8495 24.313C30.8231 24.2489 30.8231 24.177 30.8495 24.113C30.863 24.0819 30.8823 24.0537 30.9065 24.03C30.9583 23.9801 31.0276 23.9524 31.0995 23.953ZM31.0995 24.406C31.1249 24.4062 31.1501 24.4011 31.1735 24.391C31.1959 24.3813 31.2163 24.3674 31.2335 24.35C31.2505 24.3327 31.264 24.3123 31.2735 24.29C31.2883 24.2551 31.2924 24.2166 31.2853 24.1794C31.2782 24.1422 31.2601 24.1079 31.2335 24.081C31.2162 24.064 31.1958 24.0504 31.1735 24.041C31.1501 24.0309 31.1249 24.0258 31.0995 24.026C31.0737 24.0258 31.0482 24.0309 31.0245 24.041C31.0022 24.0506 30.9819 24.0641 30.9645 24.081C30.9473 24.0982 30.9337 24.1185 30.9245 24.141C30.9097 24.1759 30.9056 24.2144 30.9127 24.2516C30.9198 24.2888 30.9378 24.3231 30.9645 24.35C30.9818 24.3672 31.0022 24.3811 31.0245 24.391C31.0482 24.401 31.0737 24.4061 31.0995 24.406ZM31.1145 24.099C31.1406 24.097 31.1665 24.1045 31.1875 24.12C31.1957 24.127 31.2022 24.1357 31.2066 24.1456C31.2109 24.1555 31.2129 24.1662 31.2125 24.177C31.2127 24.1855 31.2113 24.1939 31.2082 24.2018C31.2051 24.2097 31.2005 24.2169 31.1945 24.223C31.1802 24.2364 31.162 24.2449 31.1425 24.247L31.2155 24.331H31.1375L31.0725 24.25H31.0645V24.331H30.9985V24.098L31.1145 24.099ZM31.0645 24.156V24.199H31.1135C31.1211 24.2009 31.1289 24.2009 31.1365 24.199C31.1392 24.1973 31.1414 24.195 31.1428 24.1921C31.1442 24.1893 31.1448 24.1861 31.1445 24.183C31.1447 24.1799 31.144 24.1767 31.1426 24.1739C31.1412 24.1711 31.1391 24.1687 31.1365 24.167C31.1294 24.1632 31.1215 24.1615 31.1135 24.162L31.0645 24.156Z" fill="var(--fill-0, #161615)"/>
<path id="Caminho 21" d="M12.0485 9.71C12.0481 8.24529 12.3798 6.79954 13.0185 5.48146C13.6573 4.16337 14.5866 3.00725 15.7365 2.1C14.3057 0.967461 12.5848 0.261009 10.7709 0.0616348C8.95707 -0.13774 7.12375 0.178033 5.48112 0.972753C3.8385 1.76747 2.45306 3.00897 1.48363 4.55493C0.51419 6.10089 0 7.88873 0 9.7135C0 11.5383 0.51419 13.3261 1.48363 14.8721C2.45306 16.418 3.8385 17.6595 5.48112 18.4543C7.12375 19.249 8.95707 19.5647 10.7709 19.3654C12.5848 19.166 14.3057 18.4595 15.7365 17.327C14.5857 16.419 13.6558 15.2618 13.017 13.9424C12.3782 12.623 12.047 11.1759 12.0485 9.71Z" fill="var(--fill-0, #D90010)"/>
<path id="Caminho 22" d="M12.0485 9.711C12.0474 11.1763 12.3786 12.6228 13.0172 13.9416C13.6558 15.2604 14.5852 16.4172 15.7355 17.325C16.8856 16.4171 17.8151 15.2603 18.4541 13.9417C19.0932 12.6231 19.4251 11.1768 19.4251 9.7115C19.4251 8.24619 19.0932 6.79992 18.4541 5.48129C17.8151 4.16267 16.8856 3.00595 15.7355 2.098C14.5852 3.00577 13.6558 4.16258 13.0172 5.4814C12.3786 6.80022 12.0474 8.2457 12.0485 9.711Z" fill="var(--fill-0, #E54800)"/>
<path id="Caminho 23" d="M30.8115 14.962V14.674H30.6965V14.596H31.0115V14.674H30.8965V14.958L30.8115 14.962ZM31.4205 14.962V14.711L31.3385 14.928H31.2485L31.1665 14.712V14.963H31.0815V14.601H31.2035L31.2935 14.833L31.3825 14.601H31.5045V14.963L31.4205 14.962Z" fill="var(--fill-0, #F78B00)"/>
<path id="Caminho 24" d="M21.7595 3.12202e-06C19.572 -0.00175441 17.4487 0.738585 15.7365 2.1C16.8866 3.00795 17.8161 4.16466 18.4551 5.48329C19.0941 6.80192 19.4261 8.24819 19.4261 9.7135C19.4261 11.1788 19.0941 12.6251 18.4551 13.9437C17.8161 15.2623 16.8866 16.4191 15.7365 17.327C16.9516 18.2871 18.3787 18.9426 19.8987 19.2388C21.4187 19.5349 22.9875 19.4633 24.4741 19.0297C25.9607 18.5961 27.3221 17.8132 28.4446 16.7463C29.567 15.6794 30.418 14.3596 30.9264 12.8968C31.4349 11.4341 31.5861 9.87095 31.3674 8.33789C31.1487 6.80482 30.5665 5.34631 29.6693 4.08409C28.7721 2.82187 27.586 1.79257 26.21 1.0821C24.8341 0.371632 23.3081 0.000609526 21.7595 3.12202e-06Z" fill="var(--fill-0, #F78B00)"/>
</g>
</svg>
