<svg preserveAspectRatio="none" width="100%" height="100%" overflow="visible" style="display: block;" viewBox="0 0 17 14" fill="none" xmlns="http://www.w3.org/2000/svg">
<g id="clip-path-3">
<path id="Caminho 27" d="M12.5 0.206936C11.3667 3.08627 10.2317 5.96294 9.095 8.83694C9.073 8.89194 9.04 8.93694 8.995 9.03094C8.965 8.88094 8.942 8.77494 8.922 8.66894C8.46067 6.2356 8 3.8016 7.54 1.36694C7.4834 0.973448 7.28171 0.615344 6.97456 0.362963C6.66741 0.110582 6.277 -0.0178347 5.88 0.00293596H0.387C0.005 0.00293596 0.005 0.0029358 0 0.402936L0.133 0.436936C1.16039 0.668038 2.16455 0.992381 3.133 1.40594C3.40956 1.52131 3.65337 1.70315 3.84281 1.93533C4.03225 2.16751 4.16147 2.44285 4.219 2.73694C5.1 6.19994 6 9.65294 6.885 13.1099C6.936 13.3099 7.008 13.3869 7.23 13.3839C8.276 13.3699 9.323 13.3729 10.369 13.3839C10.4483 13.3962 10.5294 13.3789 10.5968 13.3354C10.6643 13.2919 10.7134 13.2252 10.735 13.1479C12.3863 9.18794 14.0413 5.23127 15.7 1.27794C15.874 0.863936 16.045 0.448936 16.226 0.0129359C16.126 0.0129359 16.06 0.00293579 15.991 0.00193579H15.108C14.34 0.00193579 13.572 0.00193579 12.808 0.00193579H12.8C12.7331 -0.00604631 12.6655 0.0108299 12.6102 0.0493592C12.5549 0.0878884 12.5157 0.145387 12.5 0.210936" fill="var(--fill-0, black)"/>
</g>
</svg>
