<svg preserveAspectRatio="none" width="100%" height="100%" overflow="visible" style="display: block;" viewBox="0 0 28 11" fill="none" xmlns="http://www.w3.org/2000/svg">
<g id="Grupo 25">
<path id="Caminho 30" fill-rule="evenodd" clip-rule="evenodd" d="M5.368 10.0321V5.69007H9.968L10.461 6.33308L10.97 5.69007H27.654V9.73207C27.3717 9.91217 27.0474 10.0156 26.713 10.0321H17.473L16.917 9.34808V10.0321H15.095V8.86408C14.8519 8.98762 14.5802 9.0439 14.308 9.02708H13.688V10.0321H10.926L10.433 9.37508L9.933 10.0321H5.368Z" fill="var(--fill-0, white)"/>
<path id="Caminho 31" fill-rule="evenodd" clip-rule="evenodd" d="M3.72529e-09 2.41708L1.037 7.7336e-05H2.829L3.417 1.35408V7.7336e-05H5.646L5.996 0.978078L6.336 7.7336e-05H16.336V0.492078C16.7272 0.169963 17.2193 -0.00421096 17.726 7.7336e-05L20.972 0.0110789L21.55 1.34708V7.7336e-05H23.415L23.928 0.768079V7.7336e-05H25.81V4.34208H23.933L23.441 3.57208V4.34208H20.7L20.425 3.65808H19.688L19.417 4.34208H17.559C17.1074 4.33706 16.6734 4.16582 16.34 3.86108V4.34308H13.54L12.984 3.65908V4.34308H2.564L2.289 3.66108H1.554L1.281 4.34508H3.72529e-09V2.41708Z" fill="var(--fill-0, white)"/>
<path id="Caminho 32" fill-rule="evenodd" clip-rule="evenodd" d="M1.403 0.536077L0.00300001 3.78708H0.913L1.171 3.13608H2.67L2.927 3.78708H3.857L2.457 0.536077H1.403ZM1.92 1.29307L2.377 2.43107H1.462L1.92 1.29307Z" fill="var(--fill-0, #016FD0)"/>
<path id="Caminho 33" fill-rule="evenodd" clip-rule="evenodd" d="M3.956 3.78608V0.535075H5.25L6.002 2.63508L6.737 0.535075H8.02V3.78608H7.207V1.38608L6.346 3.78608H5.633L4.769 1.38608V3.78608H3.956Z" fill="var(--fill-0, #016FD0)"/>
<path id="Caminho 34" fill-rule="evenodd" clip-rule="evenodd" d="M8.576 3.78608V0.535075H11.228V1.26208H9.397V1.81608H11.185V2.50008H9.397V3.07808H11.228V3.78407L8.576 3.78608Z" fill="var(--fill-0, #016FD0)"/>
<path id="Caminho 35" fill-rule="evenodd" clip-rule="evenodd" d="M11.699 0.536077V3.78708H12.512V2.63208H12.85L13.824 3.78708H14.817L13.748 2.58708C13.995 2.56254 14.2237 2.44614 14.3889 2.26093C14.5541 2.07573 14.6437 1.83523 14.64 1.58708C14.6409 1.44132 14.6115 1.29695 14.5536 1.16316C14.4957 1.02937 14.4107 0.90906 14.3039 0.809866C14.1971 0.710671 14.0708 0.634755 13.9331 0.586935C13.7954 0.539115 13.6493 0.520434 13.504 0.532076L11.699 0.536077ZM12.512 1.26307H13.441C13.5368 1.25966 13.6303 1.29329 13.702 1.35698C13.7737 1.42066 13.8181 1.50951 13.826 1.60508C13.8196 1.69906 13.7773 1.78698 13.7079 1.85064C13.6384 1.91431 13.5472 1.94883 13.453 1.94707H12.512V1.26307Z" fill="var(--fill-0, #016FD0)"/>
<path id="Ret&#195;&#162;ngulo 14" d="M15.805 0.535076H14.975V3.78608H15.805V0.535076Z" fill="var(--fill-0, #016FD0)"/>
<path id="Caminho 36" fill-rule="evenodd" clip-rule="evenodd" d="M17.773 3.78608H17.594C17.3931 3.78205 17.1954 3.73583 17.0135 3.65042C16.8317 3.56501 16.6698 3.44232 16.5385 3.29031C16.4071 3.1383 16.3092 2.96038 16.2511 2.76808C16.1929 2.57578 16.1759 2.3734 16.201 2.17408C16.1779 1.95526 16.2037 1.73404 16.2763 1.52635C16.349 1.31866 16.4667 1.12966 16.6212 0.972929C16.7756 0.8162 16.9629 0.695641 17.1695 0.619932C17.3761 0.544223 17.5969 0.515243 17.816 0.535074H18.716V1.30507H17.785C17.6758 1.30761 17.5684 1.33299 17.4696 1.37957C17.3709 1.42614 17.283 1.49289 17.2115 1.57551C17.1401 1.65812 17.0868 1.75478 17.055 1.85925C17.0233 1.96372 17.0137 2.07369 17.027 2.18207C17.0122 2.30154 17.0246 2.4228 17.0631 2.53682C17.1017 2.65085 17.1655 2.7547 17.2498 2.84063C17.3341 2.92656 17.4367 2.99236 17.55 3.03312C17.6633 3.07389 17.7843 3.08858 17.904 3.07608H18.118L17.773 3.78608Z" fill="var(--fill-0, #016FD0)"/>
<path id="Caminho 37" fill-rule="evenodd" clip-rule="evenodd" d="M19.541 0.536077L18.141 3.78708H19.051L19.309 3.13608H20.809L21.066 3.78708H21.996L20.596 0.536077H19.541ZM20.058 1.29307L20.515 2.43107H19.599L20.058 1.29307Z" fill="var(--fill-0, #016FD0)"/>
<path id="Caminho 38" fill-rule="evenodd" clip-rule="evenodd" d="M22.093 3.78608V0.535075H23.126L24.445 2.57808V0.535075H25.258V3.78608H24.258L22.905 1.68607V3.78608H22.093Z" fill="var(--fill-0, #016FD0)"/>
<path id="Caminho 39" fill-rule="evenodd" clip-rule="evenodd" d="M5.924 9.47408V6.22408H8.576V6.95107H6.745V7.50707H8.533V8.19107H6.745V8.76908H8.576V9.47508L5.924 9.47408Z" fill="var(--fill-0, #016FD0)"/>
<path id="Caminho 40" fill-rule="evenodd" clip-rule="evenodd" d="M18.919 9.47408V6.22408H21.573V6.95107H19.742V7.50707H21.521V8.19107H19.742V8.76908H21.573V9.47508L18.919 9.47408Z" fill="var(--fill-0, #016FD0)"/>
<path id="Caminho 41" fill-rule="evenodd" clip-rule="evenodd" d="M8.679 9.47408L9.97 7.86907L8.648 6.22408H9.672L10.459 7.24108L11.249 6.22408H12.233L10.933 7.84908L12.227 9.47408H11.199L10.435 8.47408L9.689 9.47408H8.679Z" fill="var(--fill-0, #016FD0)"/>
<path id="Caminho 42" fill-rule="evenodd" clip-rule="evenodd" d="M12.319 6.22507V9.47108H13.153V8.44408H14.008C14.1682 8.46552 14.3311 8.45216 14.4857 8.40491C14.6403 8.35766 14.7828 8.27763 14.9037 8.17028C15.0245 8.06293 15.1208 7.93078 15.1859 7.78285C15.251 7.63492 15.2834 7.47468 15.281 7.31307C15.2849 7.16209 15.2567 7.012 15.1984 6.87266C15.1402 6.73333 15.053 6.60792 14.9428 6.50468C14.8326 6.40143 14.7017 6.32269 14.5589 6.27364C14.416 6.22459 14.2644 6.20633 14.114 6.22008L12.319 6.22507ZM13.153 6.96007H14.053C14.1045 6.95541 14.1564 6.96168 14.2053 6.97847C14.2542 6.99526 14.299 7.02219 14.3368 7.0575C14.3745 7.09281 14.4044 7.13571 14.4244 7.18337C14.4445 7.23103 14.4542 7.28239 14.453 7.33407C14.453 7.38541 14.4424 7.4362 14.422 7.48329C14.4015 7.53038 14.3716 7.57276 14.3341 7.60782C14.2966 7.64289 14.2523 7.66988 14.204 7.68712C14.1556 7.70437 14.1042 7.7115 14.053 7.70808H13.153V6.96007Z" fill="var(--fill-0, #016FD0)"/>
<path id="Caminho 43" fill-rule="evenodd" clip-rule="evenodd" d="M15.634 6.22408V9.47508H16.447V8.32008H16.789L17.763 9.47508H18.756L17.686 8.27508C17.933 8.25054 18.1617 8.13414 18.3269 7.94893C18.4921 7.76373 18.5817 7.52323 18.578 7.27508C18.5789 7.12931 18.5495 6.98496 18.4916 6.85116C18.4337 6.71737 18.3487 6.59706 18.2419 6.49787C18.1351 6.39868 18.0088 6.32276 17.8711 6.27494C17.7334 6.22712 17.5873 6.20843 17.442 6.22008H15.633L15.634 6.22408ZM16.447 6.95108H17.376C17.4718 6.94767 17.5653 6.9813 17.637 7.04498C17.7087 7.10867 17.7531 7.19752 17.761 7.29308C17.7546 7.38706 17.7123 7.47499 17.6429 7.53865C17.5734 7.60231 17.4822 7.63683 17.388 7.63508H16.447V6.95108Z" fill="var(--fill-0, #016FD0)"/>
<path id="Caminho 44" fill-rule="evenodd" clip-rule="evenodd" d="M21.947 9.47408V8.77407H23.574C23.815 8.77407 23.919 8.64408 23.919 8.50108C23.919 8.35808 23.819 8.22608 23.574 8.22608H22.839C22.7069 8.23902 22.5736 8.22289 22.4485 8.17882C22.3233 8.13475 22.2093 8.06381 22.1145 7.97099C22.0197 7.87816 21.9463 7.7657 21.8996 7.6415C21.8528 7.51731 21.8339 7.38439 21.844 7.25208C21.844 6.73108 22.17 6.22807 23.119 6.22807H24.702L24.36 6.95908H22.991C22.729 6.95908 22.649 7.09608 22.649 7.22708C22.6489 7.26571 22.6568 7.30396 22.672 7.33945C22.6873 7.37494 22.7097 7.40693 22.7378 7.43344C22.7659 7.45996 22.7991 7.48044 22.8355 7.49362C22.8718 7.5068 22.9104 7.51239 22.949 7.51007H23.719C23.85 7.49071 23.9837 7.50076 24.1103 7.53949C24.237 7.57823 24.3534 7.64467 24.4512 7.73401C24.5489 7.82335 24.6256 7.93333 24.6755 8.05598C24.7255 8.17863 24.7475 8.31086 24.74 8.44308C24.7492 8.58355 24.7279 8.72434 24.6776 8.85579C24.6272 8.98724 24.549 9.10623 24.4482 9.20458C24.3475 9.30292 24.2267 9.37829 24.0941 9.4255C23.9615 9.47271 23.8202 9.49065 23.68 9.47807L21.947 9.47408Z" fill="var(--fill-0, #016FD0)"/>
<path id="Caminho 45" fill-rule="evenodd" clip-rule="evenodd" d="M24.93 9.47408V8.77407H26.488C26.729 8.77407 26.833 8.64408 26.833 8.50108C26.833 8.35808 26.733 8.22608 26.488 8.22608H25.825C25.6929 8.23902 25.5596 8.22289 25.4345 8.17882C25.3093 8.13475 25.1953 8.06381 25.1005 7.97099C25.0057 7.87816 24.9323 7.7657 24.8856 7.6415C24.8389 7.51731 24.8199 7.38439 24.83 7.25208C24.83 6.73108 25.156 6.22807 26.105 6.22807H27.656L27.314 6.95908H25.977C25.715 6.95908 25.635 7.09608 25.635 7.22708C25.6349 7.26571 25.6428 7.30396 25.6581 7.33945C25.6733 7.37494 25.6957 7.40693 25.7238 7.43344C25.7519 7.45996 25.7852 7.48044 25.8215 7.49362C25.8578 7.5068 25.8964 7.51239 25.935 7.51007H26.635C26.766 7.49071 26.8997 7.50076 27.0263 7.53949C27.153 7.57823 27.2694 7.64467 27.3672 7.73401C27.4649 7.82335 27.5416 7.93333 27.5915 8.05598C27.6415 8.17863 27.6635 8.31086 27.656 8.44308C27.6652 8.58355 27.6439 8.72434 27.5936 8.85579C27.5432 8.98724 27.465 9.10623 27.3643 9.20458C27.2635 9.30292 27.1427 9.37829 27.0101 9.4255C26.8775 9.47271 26.7362 9.49065 26.596 9.47807L24.93 9.47408Z" fill="var(--fill-0, #016FD0)"/>
</g>
</svg>
