<svg preserveAspectRatio="none" width="100%" height="100%" overflow="visible" style="display: block;" viewBox="0 0 24 24" fill="none" xmlns="http://www.w3.org/2000/svg">
<g id="Objects / Pix">
<path id="Vetor" d="M7.52206 16.2406C7.83083 16.2414 8.13669 16.181 8.42197 16.0629C8.70726 15.9448 8.96631 15.7714 9.18416 15.5525L11.5843 13.1524C11.6692 13.0711 11.7822 13.0258 11.8997 13.0258C12.0172 13.0258 12.1301 13.0711 12.215 13.1524L14.6238 15.5612C14.8417 15.78 15.1007 15.9535 15.386 16.0716C15.6713 16.1897 15.9772 16.2501 16.2859 16.2493H16.7593L13.7191 19.2894C13.2632 19.7451 12.6449 20.0011 12.0003 20.0011C11.3557 20.0011 10.7375 19.7451 10.2816 19.2894L7.23338 16.2406H7.52206ZM16.2859 7.75141C15.9772 7.7506 15.6713 7.81099 15.386 7.92909C15.1007 8.04718 14.8417 8.22065 14.6238 8.43945L12.215 10.8489C12.1313 10.9324 12.0179 10.9793 11.8997 10.9793C11.7814 10.9793 11.668 10.9324 11.5843 10.8489L9.18416 8.44879C8.96637 8.22986 8.70734 8.05627 8.42205 7.93806C8.13676 7.81985 7.83087 7.75936 7.52206 7.76008H7.23271L10.2816 4.71189C10.7374 4.25607 11.3557 4 12.0003 4C12.645 4 13.2632 4.25607 13.7191 4.71189L16.7586 7.75141H16.2859ZM4.71189 10.2816L6.52667 8.46612H7.5214C7.95723 8.46726 8.37503 8.64023 8.68413 8.94748L11.0843 11.3476C11.3005 11.5632 11.5933 11.6843 11.8987 11.6843C12.204 11.6843 12.4968 11.5632 12.713 11.3476L15.1225 8.93882C15.4315 8.63125 15.8493 8.45803 16.2853 8.45679H17.4633L19.2881 10.2816C19.7439 10.7374 20 11.3557 20 12.0003C20 12.645 19.7439 13.2632 19.2881 13.7191L17.464 15.5432H16.2853C15.8494 15.5421 15.4316 15.3692 15.1225 15.0619L12.7137 12.653C12.4942 12.4436 12.2024 12.3267 11.899 12.3267C11.5956 12.3267 11.3038 12.4436 11.0843 12.653L8.68413 15.0532C8.37503 15.3604 7.95723 15.5334 7.5214 15.5345H6.52734L4.71189 13.7191C4.25607 13.2632 4 12.645 4 12.0003C4 11.3557 4.25607 10.7374 4.71189 10.2816Z" fill="var(--fill-0, #E7A63A)"/>
</g>
</svg>
