<svg preserveAspectRatio="none" width="100%" height="100%" overflow="visible" style="display: block;" viewBox="0 0 14.2333 13.6476" fill="none" xmlns="http://www.w3.org/2000/svg">
<path id="verified" d="M6.41667 7.29048L5.45 6.34048C5.32778 6.21825 5.175 6.15714 4.99167 6.15714C4.80833 6.15714 4.65 6.22381 4.51667 6.35714C4.39444 6.47937 4.33333 6.63492 4.33333 6.82381C4.33333 7.0127 4.39444 7.16825 4.51667 7.29048L5.95 8.72381C6.08333 8.85714 6.23889 8.92381 6.41667 8.92381C6.59444 8.92381 6.75 8.85714 6.88333 8.72381L9.71667 5.89048C9.85 5.75714 9.91389 5.60159 9.90833 5.42381C9.90278 5.24603 9.83889 5.09048 9.71667 4.95714C9.58333 4.82381 9.425 4.75437 9.24167 4.74881C9.05833 4.74325 8.9 4.80714 8.76667 4.94048L6.41667 7.29048ZM4.55 13.3238L3.58333 11.6905L1.75 11.2905C1.58333 11.2571 1.45 11.171 1.35 11.0321C1.25 10.8933 1.21111 10.7405 1.23333 10.5738L1.41667 8.69048L0.166667 7.25714C0.0555556 7.13492 0 6.99048 0 6.82381C0 6.65714 0.0555556 6.5127 0.166667 6.39048L1.41667 4.95714L1.23333 3.07381C1.21111 2.90714 1.25 2.75437 1.35 2.61548C1.45 2.47659 1.58333 2.39048 1.75 2.35714L3.58333 1.95714L4.55 0.32381C4.63889 0.179365 4.76111 0.0821429 4.91667 0.0321429C5.07222 -0.0178571 5.22778 -0.00952381 5.38333 0.0571429L7.11667 0.790476L8.85 0.0571429C9.00556 -0.00952381 9.16111 -0.0178571 9.31667 0.0321429C9.47222 0.0821429 9.59445 0.179365 9.68333 0.32381L10.65 1.95714L12.4833 2.35714C12.65 2.39048 12.7833 2.47659 12.8833 2.61548C12.9833 2.75437 13.0222 2.90714 13 3.07381L12.8167 4.95714L14.0667 6.39048C14.1778 6.5127 14.2333 6.65714 14.2333 6.82381C14.2333 6.99048 14.1778 7.13492 14.0667 7.25714L12.8167 8.69048L13 10.5738C13.0222 10.7405 12.9833 10.8933 12.8833 11.0321C12.7833 11.171 12.65 11.2571 12.4833 11.2905L10.65 11.6905L9.68333 13.3238C9.59445 13.4683 9.47222 13.5655 9.31667 13.6155C9.16111 13.6655 9.00556 13.6571 8.85 13.5905L7.11667 12.8571L5.38333 13.5905C5.22778 13.6571 5.07222 13.6655 4.91667 13.6155C4.76111 13.5655 4.63889 13.4683 4.55 13.3238ZM5.41667 12.1238L7.11667 11.3905L8.85 12.1238L9.78333 10.5238L11.6167 10.0905L11.45 8.22381L12.6833 6.82381L11.45 5.39048L11.6167 3.52381L9.78333 3.12381L8.81667 1.52381L7.11667 2.25714L5.38333 1.52381L4.45 3.12381L2.61667 3.52381L2.78333 5.39048L1.55 6.82381L2.78333 8.22381L2.61667 10.1238L4.45 10.5238L5.41667 12.1238Z" fill="var(--fill-0, #B3261E)"/>
</svg>
