<svg preserveAspectRatio="xMidYMid meet" width="100%" height="100%" overflow="visible" style="display: block;" viewBox="0 0 14.7417 10.6667" fill="none" xmlns="http://www.w3.org/2000/svg">
<path id="delivery_truck_speed" d="M4.16667 10.6667C3.61111 10.6667 3.13889 10.4722 2.75 10.0833C2.36111 9.69444 2.16667 9.22222 2.16667 8.66667H1.31667C1.12778 8.66667 0.969445 8.60278 0.841667 8.475C0.713889 8.34722 0.65 8.18889 0.65 8C0.65 7.81111 0.713889 7.65278 0.841667 7.525C0.969445 7.39722 1.12778 7.33333 1.31667 7.33333H2.68333C2.87222 7.12222 3.09444 6.95833 3.35 6.84167C3.60556 6.725 3.87778 6.66667 4.16667 6.66667C4.45556 6.66667 4.72778 6.725 4.98333 6.84167C5.23889 6.95833 5.46111 7.12222 5.65 7.33333H8.43333L9.83333 1.33333H3.33333C3.14444 1.33333 2.98611 1.26944 2.85833 1.14167C2.73056 1.01389 2.66667 0.855556 2.66667 0.666667C2.66667 0.477778 2.73056 0.319444 2.85833 0.191667C2.98611 0.0638889 3.14444 0 3.33333 0H10.6667C10.8889 0 11.0667 0.0833333 11.2 0.25C11.3333 0.416667 11.3722 0.605556 11.3167 0.816667L10.8833 2.66667H12.1667C12.3778 2.66667 12.5778 2.71389 12.7667 2.80833C12.9556 2.90278 13.1111 3.03333 13.2333 3.2L14.4833 4.85C14.6056 5.00556 14.6833 5.175 14.7167 5.35833C14.75 5.54167 14.75 5.72778 14.7167 5.91667L14.2667 8.13333C14.2333 8.28889 14.1556 8.41667 14.0333 8.51667C13.9111 8.61667 13.7722 8.66667 13.6167 8.66667H12.8333C12.8333 9.22222 12.6389 9.69444 12.25 10.0833C11.8611 10.4722 11.3889 10.6667 10.8333 10.6667C10.2778 10.6667 9.80556 10.4722 9.41667 10.0833C9.02778 9.69444 8.83333 9.22222 8.83333 8.66667H6.16667C6.16667 9.22222 5.97222 9.69444 5.58333 10.0833C5.19444 10.4722 4.72222 10.6667 4.16667 10.6667ZM10.1167 6H13.3333L13.4 5.65L12.1667 4H10.5833L10.1167 6ZM8.46667 7.21667L8.575 6.73333C8.64722 6.41111 8.73889 6.01667 8.85 5.55C8.88333 5.40556 8.91667 5.27222 8.95 5.15C8.98333 5.02778 9.01111 4.90556 9.03333 4.78333L9.14167 4.3C9.21389 3.97778 9.30556 3.58333 9.41667 3.11667C9.52778 2.65 9.61944 2.25556 9.69167 1.93333L9.8 1.45L9.83333 1.33333L8.43333 7.33333L8.46667 7.21667ZM0.666667 6.21667C0.477778 6.21667 0.319444 6.15278 0.191667 6.025C0.0638889 5.89722 0 5.73889 0 5.55C0 5.36111 0.0638889 5.20278 0.191667 5.075C0.319444 4.94722 0.477778 4.88333 0.666667 4.88333H3C3.18889 4.88333 3.34722 4.94722 3.475 5.075C3.60278 5.20278 3.66667 5.36111 3.66667 5.55C3.66667 5.73889 3.60278 5.89722 3.475 6.025C3.34722 6.15278 3.18889 6.21667 3 6.21667H0.666667ZM2 3.78333C1.81111 3.78333 1.65278 3.71944 1.525 3.59167C1.39722 3.46389 1.33333 3.30556 1.33333 3.11667C1.33333 2.92778 1.39722 2.76944 1.525 2.64167C1.65278 2.51389 1.81111 2.45 2 2.45H5C5.18889 2.45 5.34722 2.51389 5.475 2.64167C5.60278 2.76944 5.66667 2.92778 5.66667 3.11667C5.66667 3.30556 5.60278 3.46389 5.475 3.59167C5.34722 3.71944 5.18889 3.78333 5 3.78333H2ZM4.16667 9.33333C4.35556 9.33333 4.51389 9.26945 4.64167 9.14167C4.76944 9.01389 4.83333 8.85556 4.83333 8.66667C4.83333 8.47778 4.76944 8.31944 4.64167 8.19167C4.51389 8.06389 4.35556 8 4.16667 8C3.97778 8 3.81944 8.06389 3.69167 8.19167C3.56389 8.31944 3.5 8.47778 3.5 8.66667C3.5 8.85556 3.56389 9.01389 3.69167 9.14167C3.81944 9.26945 3.97778 9.33333 4.16667 9.33333ZM10.8333 9.33333C11.0222 9.33333 11.1806 9.26945 11.3083 9.14167C11.4361 9.01389 11.5 8.85556 11.5 8.66667C11.5 8.47778 11.4361 8.31944 11.3083 8.19167C11.1806 8.06389 11.0222 8 10.8333 8C10.6444 8 10.4861 8.06389 10.3583 8.19167C10.2306 8.31944 10.1667 8.47778 10.1667 8.66667C10.1667 8.85556 10.2306 9.01389 10.3583 9.14167C10.4861 9.26945 10.6444 9.33333 10.8333 9.33333Z" fill="currentColor"/>
</svg>
