<svg preserveAspectRatio="xMidYMid meet" width="100%" height="100%" overflow="visible" style="display: block;" viewBox="0 0 24 24" fill="none" xmlns="http://www.w3.org/2000/svg">
<g id="screen_rotation_alt">
<mask id="mask0_378_19048" style="mask-type:alpha" maskUnits="userSpaceOnUse" x="0" y="0" width="24" height="24">
<rect id="Bounding box" width="24" height="24" fill="currentColor"/>
</mask>
<g mask="url(#mask0_378_19048)">
<path id="payments" d="M9.33333 8.66667C8.77778 8.66667 8.30556 8.47222 7.91667 8.08333C7.52778 7.69444 7.33333 7.22222 7.33333 6.66667C7.33333 6.11111 7.52778 5.63889 7.91667 5.25C8.30556 4.86111 8.77778 4.66667 9.33333 4.66667C9.88889 4.66667 10.3611 4.86111 10.75 5.25C11.1389 5.63889 11.3333 6.11111 11.3333 6.66667C11.3333 7.22222 11.1389 7.69444 10.75 8.08333C10.3611 8.47222 9.88889 8.66667 9.33333 8.66667ZM4.66667 10.6667C4.3 10.6667 3.98611 10.5361 3.725 10.275C3.46389 10.0139 3.33333 9.7 3.33333 9.33333V4C3.33333 3.63333 3.46389 3.31944 3.725 3.05833C3.98611 2.79722 4.3 2.66667 4.66667 2.66667H14C14.3667 2.66667 14.6806 2.79722 14.9417 3.05833C15.2028 3.31944 15.3333 3.63333 15.3333 4V9.33333C15.3333 9.7 15.2028 10.0139 14.9417 10.275C14.6806 10.5361 14.3667 10.6667 14 10.6667H4.66667ZM6 9.33333H12.6667C12.6667 8.96667 12.7972 8.65278 13.0583 8.39167C13.3194 8.13056 13.6333 8 14 8V5.33333C13.6333 5.33333 13.3194 5.20278 13.0583 4.94167C12.7972 4.68056 12.6667 4.36667 12.6667 4H6C6 4.36667 5.86944 4.68056 5.60833 4.94167C5.34722 5.20278 5.03333 5.33333 4.66667 5.33333V8C5.03333 8 5.34722 8.13056 5.60833 8.39167C5.86944 8.65278 6 8.96667 6 9.33333ZM12.6667 13.3333H2C1.63333 13.3333 1.31944 13.2028 1.05833 12.9417C0.797222 12.6806 0.666667 12.3667 0.666667 12V5.33333C0.666667 5.14444 0.730556 4.98611 0.858333 4.85833C0.986111 4.73056 1.14444 4.66667 1.33333 4.66667C1.52222 4.66667 1.68056 4.73056 1.80833 4.85833C1.93611 4.98611 2 5.14444 2 5.33333V12H12.6667C12.8556 12 13.0139 12.0639 13.1417 12.1917C13.2694 12.3194 13.3333 12.4778 13.3333 12.6667C13.3333 12.8556 13.2694 13.0139 13.1417 13.1417C13.0139 13.2694 12.8556 13.3333 12.6667 13.3333Z" fill="currentColor"/>
</g>
</g>
</svg>
