<?xml version="1.0" encoding="UTF-8" ?>
<!DOCTYPE svg PUBLIC "-//W3C//DTD SVG 1.1//EN" "http://www.w3.org/Graphics/SVG/1.1/DTD/svg11.dtd">
<svg width="971pt" height="431pt" viewBox="0 0 971 431" version="1.1" xmlns="http://www.w3.org/2000/svg">
<g id="#fffffdff">
<path fill="#fffffd" opacity="1.00" d=" M 0.00 0.00 L 971.00 0.00 L 971.00 431.00 L 0.00 431.00 L 0.00 0.00 M 837.36 34.39 C 834.72 37.32 831.53 40.34 831.27 44.53 C 837.06 40.81 840.95 33.25 848.54 33.11 C 848.95 43.35 847.77 53.93 843.15 63.20 C 841.12 67.64 838.11 71.51 835.47 75.57 C 834.63 76.64 834.48 78.03 834.66 79.34 C 837.19 77.31 839.38 74.87 841.22 72.20 C 849.33 60.10 853.56 45.49 853.37 30.94 C 853.36 28.33 852.35 25.89 851.53 23.46 C 846.43 26.58 841.43 29.97 837.36 34.39 M 828.33 82.34 C 825.87 84.66 822.92 86.39 819.65 87.28 C 819.57 84.96 819.52 82.64 819.39 80.32 C 817.23 82.71 815.08 85.27 814.28 88.47 C 813.72 90.53 812.75 93.19 814.87 94.72 C 822.46 91.27 829.43 86.02 834.70 79.55 C 832.11 78.38 830.18 80.99 828.33 82.34 M 50.70 127.16 C 52.98 129.29 55.47 131.19 57.97 133.06 C 62.84 136.84 66.62 142.59 66.50 148.94 C 66.48 218.62 66.48 288.31 66.50 358.00 C 66.41 364.24 67.46 371.10 63.76 376.59 C 60.85 381.95 54.72 384.33 51.62 389.51 C 56.98 389.68 62.39 389.90 67.71 389.15 C 72.58 388.08 77.21 385.98 81.36 383.24 C 84.97 380.88 87.14 377.07 89.67 373.70 C 91.81 370.71 95.71 370.12 98.95 368.93 C 111.49 364.73 124.91 364.42 138.01 364.70 C 145.43 365.42 152.96 365.13 160.29 366.74 C 196.44 371.88 231.50 382.50 266.45 392.76 C 285.80 397.78 306.28 399.24 325.95 395.15 C 341.38 392.93 356.08 386.83 368.86 377.95 C 379.57 371.09 387.67 360.93 394.31 350.23 C 398.23 343.93 402.87 338.13 407.20 332.12 C 414.32 321.83 419.79 310.44 423.85 298.62 C 427.48 289.15 428.68 279.01 430.11 269.05 C 430.79 256.66 430.90 243.95 427.18 231.98 C 425.58 227.02 424.76 221.86 423.47 216.82 C 411.78 181.62 384.63 151.97 350.58 137.27 C 345.66 135.45 340.78 133.52 335.88 131.68 C 330.52 129.64 324.73 129.53 319.17 128.39 C 310.24 126.45 301.06 127.62 292.00 127.27 C 283.61 126.78 275.48 129.14 267.22 130.15 C 251.56 134.12 236.60 140.96 223.42 150.33 C 201.46 165.42 184.78 187.64 175.13 212.38 C 171.10 221.42 169.10 231.23 167.87 241.00 C 167.48 249.62 165.80 258.25 167.30 266.86 C 167.68 286.82 174.37 306.06 183.54 323.59 C 188.98 333.13 195.78 341.81 202.72 350.28 C 208.01 356.78 216.14 360.15 221.23 366.83 C 215.04 365.60 209.11 363.38 203.01 361.80 C 185.71 356.83 168.14 352.44 150.18 350.68 C 138.15 348.57 125.84 349.39 113.91 351.74 C 106.15 352.57 99.38 356.98 91.66 357.96 C 91.28 289.98 91.66 221.98 91.47 154.00 C 91.42 148.32 92.06 142.23 95.49 137.50 C 98.45 133.31 102.87 130.57 106.92 127.58 C 105.35 127.03 103.76 126.38 102.06 126.44 C 87.70 126.49 73.33 126.55 58.97 126.42 C 56.19 126.39 53.42 126.67 50.70 127.16 M 412.00 127.71 C 418.11 131.45 424.54 135.23 428.42 141.49 C 436.16 151.77 439.61 164.29 445.06 175.77 C 449.57 185.62 453.54 195.74 458.53 205.38 C 462.26 212.30 464.36 219.94 467.99 226.91 C 477.71 248.21 487.10 269.65 497.03 290.85 C 499.57 295.78 501.85 300.83 503.79 306.03 C 508.30 316.70 513.18 327.22 518.01 337.76 C 521.69 345.76 524.98 353.95 529.06 361.77 C 533.64 370.41 535.75 380.21 541.13 388.46 C 543.34 384.99 545.10 381.27 546.68 377.48 C 558.64 351.73 570.22 325.80 581.98 299.95 C 590.77 279.83 600.34 260.05 609.03 239.88 C 623.00 209.17 636.76 178.38 650.74 147.68 C 655.16 138.45 663.62 131.97 672.67 127.65 C 666.60 125.83 660.23 126.66 654.00 126.55 C 647.67 126.71 641.19 125.77 635.03 127.65 C 638.90 130.37 643.86 132.43 645.74 137.14 C 647.49 141.57 647.01 146.77 645.00 151.04 C 633.44 175.95 622.42 201.11 610.99 226.08 C 594.17 262.98 577.82 300.10 560.80 336.91 C 558.19 342.48 556.67 348.80 552.13 353.23 C 548.56 346.84 546.08 339.93 542.72 333.44 C 540.52 329.27 538.40 325.06 536.60 320.71 C 526.89 297.95 516.22 275.62 506.30 252.96 C 491.17 219.41 476.04 185.87 460.77 152.39 C 458.57 146.18 458.14 138.07 463.04 132.99 C 465.47 130.15 469.41 129.49 472.26 127.16 C 466.56 126.08 460.75 126.52 455.00 126.49 C 442.65 126.47 430.30 126.55 417.95 126.42 C 415.88 126.29 413.82 126.74 412.00 127.71 M 707.62 127.22 C 711.03 131.31 716.43 133.15 719.49 137.60 C 724.10 143.70 723.55 151.78 723.52 159.00 C 723.47 227.01 723.49 295.02 723.51 363.03 C 723.42 367.80 722.95 372.70 721.06 377.12 C 718.34 382.59 712.76 385.59 707.78 388.65 C 710.55 389.48 713.31 390.56 716.29 390.39 C 776.19 390.42 836.09 390.43 896.00 390.49 C 900.43 390.40 904.92 390.88 909.32 390.16 C 910.85 389.92 911.35 388.33 911.74 387.06 C 914.71 376.67 917.70 366.28 920.75 355.91 C 922.35 350.25 924.71 344.67 924.75 338.70 C 923.49 339.73 922.14 340.71 921.17 342.04 C 916.66 348.68 913.21 356.01 908.30 362.37 C 902.48 369.19 895.69 375.27 887.92 379.78 C 881.97 383.24 875.05 384.16 868.42 385.51 C 862.03 386.88 855.47 386.39 849.00 386.44 C 821.33 386.43 793.66 386.44 766.00 386.44 C 760.36 386.46 754.69 386.71 749.09 385.87 C 748.15 379.62 748.59 373.29 748.55 367.00 C 748.53 337.00 748.55 307.00 748.54 277.00 C 748.50 271.49 748.29 265.96 749.06 260.49 C 787.06 260.59 825.05 260.50 863.05 260.54 C 868.18 260.32 872.18 264.08 875.59 267.43 C 879.63 271.40 881.41 276.92 884.24 281.70 C 885.02 279.91 885.74 278.05 885.64 276.06 C 885.57 264.02 885.57 251.98 885.64 239.93 C 885.71 238.04 885.19 236.19 884.25 234.55 C 881.75 239.19 879.95 244.35 876.18 248.17 C 873.39 250.99 870.39 253.97 866.51 255.17 C 857.09 256.73 847.51 256.27 838.00 256.32 C 811.33 256.35 784.66 256.27 757.99 256.36 C 755.02 256.35 752.09 255.97 749.16 255.62 C 748.31 250.79 748.45 245.88 748.54 241.00 C 748.55 221.00 748.54 201.00 748.54 181.00 C 748.74 164.25 748.14 147.49 748.86 130.76 C 755.89 130.25 762.95 130.53 770.00 130.49 C 802.00 130.46 834.01 130.53 866.01 130.44 C 872.91 130.46 879.78 132.01 886.20 134.50 C 893.24 137.30 898.97 142.46 904.13 147.88 C 908.96 152.90 912.17 159.16 916.47 164.60 C 916.62 161.72 916.71 158.80 916.06 155.98 C 914.13 147.65 912.60 139.25 911.15 130.83 C 910.86 128.57 909.63 125.94 906.90 126.50 C 842.58 126.44 778.25 126.55 713.92 126.45 C 711.79 126.49 709.69 126.82 707.62 127.22 Z" />
<path fill="#fffffd" opacity="1.00" d=" M 286.53 130.98 C 297.74 129.90 309.28 129.86 320.19 133.04 C 329.18 135.71 338.38 138.46 346.07 144.03 C 361.56 153.41 373.71 167.43 383.06 182.78 C 388.63 193.13 394.44 203.55 397.43 215.00 C 398.83 220.65 400.65 226.22 401.24 232.04 C 401.76 238.05 403.66 243.91 403.39 249.99 C 403.05 259.76 404.29 269.67 402.01 279.28 C 400.46 291.25 397.81 303.18 392.94 314.28 C 385.39 331.40 375.37 347.75 361.50 360.50 C 347.33 373.75 329.38 383.57 310.02 386.28 C 302.72 386.57 295.36 386.76 288.07 386.20 C 281.09 384.87 273.96 383.90 267.31 381.29 C 261.03 378.93 255.40 375.26 249.52 372.11 C 244.06 369.23 240.10 364.36 235.34 360.55 C 231.64 357.63 228.65 353.95 225.85 350.19 C 211.41 332.33 200.66 311.12 196.79 288.36 C 195.94 284.28 194.66 280.24 194.62 276.04 C 194.51 264.35 194.52 252.65 194.62 240.96 C 194.67 235.51 196.69 230.35 197.47 225.00 C 199.39 212.91 204.12 201.48 209.75 190.69 C 220.91 168.82 238.09 149.29 260.49 138.58 C 268.60 134.42 277.59 132.44 286.53 130.98 Z" />
</g>
<g id="#363435ff">
<path fill="#363435" opacity="1.00" d=" M 837.36 34.39 C 841.43 29.97 846.43 26.58 851.53 23.46 C 852.35 25.89 853.36 28.33 853.37 30.94 C 853.56 45.49 849.33 60.10 841.22 72.20 C 839.38 74.87 837.19 77.31 834.66 79.34 C 834.48 78.03 834.63 76.64 835.47 75.57 C 838.11 71.51 841.12 67.64 843.15 63.20 C 847.77 53.93 848.95 43.35 848.54 33.11 C 840.95 33.25 837.06 40.81 831.27 44.53 C 831.53 40.34 834.72 37.32 837.36 34.39 Z" />
<path fill="#363435" opacity="1.00" d=" M 828.33 82.34 C 830.18 80.99 832.11 78.38 834.70 79.55 C 829.43 86.02 822.46 91.27 814.87 94.72 C 812.75 93.19 813.72 90.53 814.28 88.47 C 815.08 85.27 817.23 82.71 819.39 80.32 C 819.52 82.64 819.57 84.96 819.65 87.28 C 822.92 86.39 825.87 84.66 828.33 82.34 Z" />
<path fill="#363435" opacity="1.00" d=" M 50.70 127.16 C 53.42 126.67 56.19 126.39 58.97 126.42 C 73.33 126.55 87.70 126.49 102.06 126.44 C 103.76 126.38 105.35 127.03 106.92 127.58 C 102.87 130.57 98.45 133.31 95.49 137.50 C 92.06 142.23 91.42 148.32 91.47 154.00 C 91.66 221.98 91.28 289.98 91.66 357.96 C 99.38 356.98 106.15 352.57 113.91 351.74 C 125.84 349.39 138.15 348.57 150.18 350.68 C 168.14 352.44 185.71 356.83 203.01 361.80 C 209.11 363.38 215.04 365.60 221.23 366.83 C 216.14 360.15 208.01 356.78 202.72 350.28 C 195.78 341.81 188.98 333.13 183.54 323.59 C 174.37 306.06 167.68 286.82 167.30 266.86 C 165.80 258.25 167.48 249.62 167.87 241.00 C 169.10 231.23 171.10 221.42 175.13 212.38 C 184.78 187.64 201.46 165.42 223.42 150.33 C 236.60 140.96 251.56 134.12 267.22 130.15 C 275.48 129.14 283.61 126.78 292.00 127.27 C 301.06 127.62 310.24 126.45 319.17 128.39 C 324.73 129.53 330.52 129.64 335.88 131.68 C 340.78 133.52 345.66 135.45 350.58 137.27 C 384.63 151.97 411.78 181.62 423.47 216.82 C 424.76 221.86 425.58 227.02 427.18 231.98 C 430.90 243.95 430.79 256.66 430.11 269.05 C 428.68 279.01 427.48 289.15 423.85 298.62 C 419.79 310.44 414.32 321.83 407.20 332.12 C 402.87 338.13 398.23 343.93 394.31 350.23 C 387.67 360.93 379.57 371.09 368.86 377.95 C 356.08 386.83 341.38 392.93 325.95 395.15 C 306.28 399.24 285.80 397.78 266.45 392.76 C 231.50 382.50 196.44 371.88 160.29 366.74 C 152.96 365.13 145.43 365.42 138.01 364.70 C 124.91 364.42 111.49 364.73 98.95 368.93 C 95.71 370.12 91.81 370.71 89.67 373.70 C 87.14 377.07 84.97 380.88 81.36 383.24 C 77.21 385.98 72.58 388.08 67.71 389.15 C 62.39 389.90 56.98 389.68 51.62 389.51 C 54.72 384.33 60.85 381.95 63.76 376.59 C 67.46 371.10 66.41 364.24 66.50 358.00 C 66.48 288.31 66.48 218.62 66.50 148.94 C 66.62 142.59 62.84 136.84 57.97 133.06 C 55.47 131.19 52.98 129.29 50.70 127.16 M 286.53 130.98 C 277.59 132.44 268.60 134.42 260.49 138.58 C 238.09 149.29 220.91 168.82 209.75 190.69 C 204.12 201.48 199.39 212.91 197.47 225.00 C 196.69 230.35 194.67 235.51 194.62 240.96 C 194.52 252.65 194.51 264.35 194.62 276.04 C 194.66 280.24 195.94 284.28 196.79 288.36 C 200.66 311.12 211.41 332.33 225.85 350.19 C 228.65 353.95 231.64 357.63 235.34 360.55 C 240.10 364.36 244.06 369.23 249.52 372.11 C 255.40 375.26 261.03 378.93 267.31 381.29 C 273.96 383.90 281.09 384.87 288.07 386.20 C 295.36 386.76 302.72 386.57 310.02 386.28 C 329.38 383.57 347.33 373.75 361.50 360.50 C 375.37 347.75 385.39 331.40 392.94 314.28 C 397.81 303.18 400.46 291.25 402.01 279.28 C 404.29 269.67 403.05 259.76 403.39 249.99 C 403.66 243.91 401.76 238.05 401.24 232.04 C 400.65 226.22 398.83 220.65 397.43 215.00 C 394.44 203.55 388.63 193.13 383.06 182.78 C 373.71 167.43 361.56 153.41 346.07 144.03 C 338.38 138.46 329.18 135.71 320.19 133.04 C 309.28 129.86 297.74 129.90 286.53 130.98 Z" />
<path fill="#363435" opacity="1.00" d=" M 412.00 127.71 C 413.82 126.74 415.88 126.29 417.95 126.42 C 430.30 126.55 442.65 126.47 455.00 126.49 C 460.75 126.52 466.56 126.08 472.26 127.16 C 469.41 129.49 465.47 130.15 463.04 132.99 C 458.14 138.07 458.57 146.18 460.77 152.39 C 476.04 185.87 491.17 219.41 506.30 252.96 C 516.22 275.62 526.89 297.95 536.60 320.71 C 538.40 325.06 540.52 329.27 542.72 333.44 C 546.08 339.93 548.56 346.84 552.13 353.23 C 556.67 348.80 558.19 342.48 560.80 336.91 C 577.82 300.10 594.17 262.98 610.99 226.08 C 622.42 201.11 633.44 175.95 645.00 151.04 C 647.01 146.77 647.49 141.57 645.74 137.14 C 643.86 132.43 638.90 130.37 635.03 127.65 C 641.19 125.77 647.67 126.71 654.00 126.55 C 660.23 126.66 666.60 125.83 672.67 127.65 C 663.62 131.97 655.16 138.45 650.74 147.68 C 636.76 178.38 623.00 209.17 609.03 239.88 C 600.34 260.05 590.77 279.83 581.98 299.95 C 570.22 325.80 558.64 351.73 546.68 377.48 C 545.10 381.27 543.34 384.99 541.13 388.46 C 535.75 380.21 533.64 370.41 529.06 361.77 C 524.98 353.95 521.69 345.76 518.01 337.76 C 513.18 327.22 508.30 316.70 503.79 306.03 C 501.85 300.83 499.57 295.78 497.03 290.85 C 487.10 269.65 477.71 248.21 467.99 226.91 C 464.36 219.94 462.26 212.30 458.53 205.38 C 453.54 195.74 449.57 185.62 445.06 175.77 C 439.61 164.29 436.16 151.77 428.42 141.49 C 424.54 135.23 418.11 131.45 412.00 127.71 Z" />
<path fill="#363435" opacity="1.00" d=" M 707.62 127.22 C 709.69 126.82 711.79 126.49 713.92 126.45 C 778.25 126.55 842.58 126.44 906.90 126.50 C 909.63 125.94 910.86 128.57 911.15 130.83 C 912.60 139.25 914.13 147.65 916.06 155.98 C 916.71 158.80 916.62 161.72 916.47 164.60 C 912.17 159.16 908.96 152.90 904.13 147.88 C 898.97 142.46 893.24 137.30 886.20 134.50 C 879.78 132.01 872.91 130.46 866.01 130.44 C 834.01 130.53 802.00 130.46 770.00 130.49 C 762.95 130.53 755.89 130.25 748.86 130.76 C 748.14 147.49 748.74 164.25 748.54 181.00 C 748.54 201.00 748.55 221.00 748.54 241.00 C 748.45 245.88 748.31 250.79 749.16 255.62 C 752.09 255.97 755.02 256.35 757.99 256.36 C 784.66 256.27 811.33 256.35 838.00 256.32 C 847.51 256.27 857.09 256.73 866.51 255.17 C 870.39 253.97 873.39 250.99 876.18 248.17 C 879.95 244.35 881.75 239.19 884.25 234.55 C 885.19 236.19 885.71 238.04 885.64 239.93 C 885.57 251.98 885.57 264.02 885.64 276.06 C 885.74 278.05 885.02 279.91 884.24 281.70 C 881.41 276.92 879.63 271.40 875.59 267.43 C 872.18 264.08 868.18 260.32 863.05 260.54 C 825.05 260.50 787.06 260.59 749.06 260.49 C 748.29 265.96 748.50 271.49 748.54 277.00 C 748.55 307.00 748.53 337.00 748.55 367.00 C 748.59 373.29 748.15 379.62 749.09 385.87 C 754.69 386.71 760.36 386.46 766.00 386.44 C 793.66 386.44 821.33 386.43 849.00 386.44 C 855.47 386.39 862.03 386.88 868.42 385.51 C 875.05 384.16 881.97 383.24 887.92 379.78 C 895.69 375.27 902.48 369.19 908.30 362.37 C 913.21 356.01 916.66 348.68 921.17 342.04 C 922.14 340.71 923.49 339.73 924.75 338.70 C 924.71 344.67 922.35 350.25 920.75 355.91 C 917.70 366.28 914.71 376.67 911.74 387.06 C 911.35 388.33 910.85 389.92 909.32 390.16 C 904.92 390.88 900.43 390.40 896.00 390.49 C 836.09 390.43 776.19 390.42 716.29 390.39 C 713.31 390.56 710.55 389.48 707.78 388.65 C 712.76 385.59 718.34 382.59 721.06 377.12 C 722.95 372.70 723.42 367.80 723.51 363.03 C 723.49 295.02 723.47 227.01 723.52 159.00 C 723.55 151.78 724.10 143.70 719.49 137.60 C 716.43 133.15 711.03 131.31 707.62 127.22 Z" />
</g>
</svg>
