<?xml version="1.0" encoding="UTF-8" ?>
<!DOCTYPE svg PUBLIC "-//W3C//DTD SVG 1.1//EN" "http://www.w3.org/Graphics/SVG/1.1/DTD/svg11.dtd">
<svg width="890pt" height="352pt" viewBox="0 0 890 352" version="1.1" xmlns="http://www.w3.org/2000/svg">
<g id="#ffffffff">
</g>
<g id="#000000ff">
<path fill="#000000" opacity="1.00" d=" M 741.54 15.81 C 755.66 23.37 766.69 38.20 765.97 54.74 C 756.52 50.30 747.92 43.01 743.88 33.19 C 741.53 27.74 740.88 21.67 741.54 15.81 Z" />
<path fill="#000000" opacity="1.00" d=" M 47.27 71.19 C 65.01 71.18 82.75 71.20 100.49 71.18 C 100.49 72.59 100.49 74.01 100.49 75.42 C 96.20 75.95 91.49 77.02 88.68 80.60 C 85.28 84.93 85.06 90.74 84.96 96.01 C 84.97 162.83 84.95 229.66 84.97 296.49 C 111.97 296.49 138.97 296.50 165.97 296.48 C 176.33 296.53 186.82 292.60 193.96 284.98 C 200.37 278.54 204.43 270.22 207.60 261.81 C 208.67 261.81 210.81 261.81 211.87 261.81 C 209.67 275.35 207.47 288.90 205.26 302.44 C 152.60 302.44 99.93 302.45 47.27 302.44 C 47.27 301.13 47.27 299.83 47.27 298.54 C 51.40 298.01 55.91 297.06 58.74 293.73 C 62.42 289.42 62.68 283.41 62.81 278.01 C 62.82 218.33 62.80 158.66 62.82 98.98 C 62.76 93.06 63.03 86.56 59.66 81.39 C 56.98 77.25 51.88 75.94 47.28 75.43 C 47.28 74.01 47.27 72.60 47.27 71.19 Z" />
<path fill="#000000" opacity="1.00" d=" M 294.79 82.74 C 308.52 76.04 323.63 72.41 338.86 71.49 C 358.52 70.22 378.63 73.09 396.73 81.06 C 425.66 94.11 449.04 119.48 458.73 149.81 C 462.19 142.09 465.63 134.37 469.10 126.66 C 469.83 129.49 470.51 132.34 471.16 135.19 C 449.52 184.78 427.82 234.34 406.17 283.93 C 418.87 275.28 428.86 262.65 433.96 248.12 C 437.23 239.46 438.81 230.26 439.54 221.07 C 439.73 219.18 439.52 217.20 440.35 215.44 C 447.67 198.68 454.98 181.92 462.32 165.17 C 466.00 184.29 465.20 204.31 459.41 222.92 C 453.68 242.13 442.48 259.34 428.84 273.89 C 419.59 284.11 407.00 290.29 394.73 296.09 C 409.30 262.41 424.24 228.87 438.71 195.15 C 436.89 179.76 432.86 164.55 426.35 150.45 C 421.27 140.61 415.05 131.35 408.12 122.72 C 399.37 111.25 388.97 100.89 376.63 93.31 C 367.67 87.83 358.16 82.94 347.86 80.59 C 314.59 73.31 277.64 91.31 262.63 121.83 C 258.45 130.38 256.94 139.88 255.73 149.23 C 253.73 162.94 254.29 177.05 257.71 190.50 C 260.98 203.73 264.41 217.12 270.82 229.23 C 280.16 245.54 291.74 260.73 305.77 273.30 C 314.81 280.93 324.99 287.22 335.72 292.18 C 351.02 299.18 368.56 298.67 384.61 294.73 C 384.06 296.57 383.52 298.41 382.99 300.26 C 348.70 309.88 309.53 305.69 280.07 284.87 C 256.57 268.51 238.98 243.35 233.27 215.14 C 227.41 186.25 230.64 154.87 245.45 129.07 C 256.96 109.30 274.26 92.88 294.79 82.74 Z" />
<path fill="#000000" opacity="1.00" d=" M 674.69 72.92 C 724.11 72.91 773.54 72.92 822.96 72.92 C 825.05 86.36 827.13 99.81 829.20 113.25 C 827.88 113.25 826.57 113.24 825.28 113.24 C 821.41 102.74 815.69 92.31 806.24 85.85 C 799.51 81.11 791.16 79.11 783.00 79.15 C 759.36 79.15 735.73 79.15 712.09 79.15 C 712.09 113.69 712.09 148.22 712.09 182.76 C 729.76 182.74 747.42 182.79 765.08 182.74 C 771.80 182.46 779.07 181.89 784.66 177.73 C 789.83 173.82 791.39 167.16 792.48 161.13 C 793.77 161.12 795.08 161.12 796.40 161.11 C 796.40 177.51 796.40 193.91 796.40 210.31 C 795.42 210.31 793.46 210.31 792.49 210.31 C 791.39 204.40 789.93 197.93 785.01 193.98 C 779.39 189.52 771.87 188.96 764.98 188.68 C 747.35 188.64 729.72 188.68 712.09 188.67 C 712.09 224.63 712.08 260.58 712.10 296.54 C 739.08 296.52 766.07 296.57 793.05 296.51 C 803.12 296.38 813.24 292.49 820.22 285.12 C 826.64 278.74 830.66 270.45 833.84 262.09 C 834.81 262.10 836.75 262.10 837.73 262.11 C 835.65 275.55 833.58 289.00 831.50 302.44 C 779.23 302.44 726.96 302.45 674.69 302.44 C 674.69 301.47 674.69 299.54 674.69 298.57 C 678.93 298.04 683.56 297.00 686.35 293.47 C 689.75 289.13 689.99 283.31 690.10 278.04 C 690.10 217.70 690.11 157.35 690.10 97.01 C 689.97 91.80 689.64 86.00 686.07 81.86 C 683.24 78.58 678.78 77.65 674.69 77.11 C 674.68 75.71 674.68 74.31 674.69 72.92 Z" />
<path fill="#000000" opacity="1.00" d=" M 434.80 73.62 C 454.54 73.62 474.27 73.62 494.01 73.62 C 493.99 74.91 493.98 76.21 493.97 77.50 C 489.20 78.18 484.01 79.80 481.24 84.04 C 478.27 88.48 479.23 94.26 481.23 98.89 C 506.09 158.12 530.93 217.36 555.80 276.59 C 578.27 217.73 600.66 158.85 623.13 99.99 C 625.10 95.02 626.89 89.05 624.04 84.06 C 621.25 79.52 615.65 78.22 610.75 77.49 C 610.75 76.52 610.75 74.59 610.75 73.62 C 625.03 73.62 639.31 73.62 653.59 73.62 C 653.58 74.90 653.59 76.19 653.60 77.48 C 642.75 78.34 634.61 87.06 630.94 96.76 C 604.73 165.30 578.69 233.90 552.53 302.45 C 549.69 302.44 546.86 302.44 544.03 302.44 C 515.27 233.67 486.59 164.87 457.79 96.11 C 453.85 86.57 445.50 78.35 434.80 77.48 C 434.80 76.52 434.80 74.59 434.80 73.62 Z" />
</g>
</svg>
