<svg width="16" height="16" viewBox="0 0 16 16" fill="none" xmlns="http://www.w3.org/2000/svg">
<mask id="mask0_137_2163" style="mask-type:alpha" maskUnits="userSpaceOnUse" x="0" y="0" width="24" height="24">
<rect width="24" height="24" fill="#D9D9D9"/>
</mask>
<g mask="url(#mask0_137_2163)">
<path d="M5.4333 14.4996L4.46663 12.8663L2.6333 12.4663C2.46663 12.4329 2.3333 12.3468 2.2333 12.2079C2.1333 12.069 2.09441 11.9163 2.11663 11.7496L2.29997 9.86626L1.04997 8.43292C0.938856 8.3107 0.883301 8.16626 0.883301 7.99959C0.883301 7.83292 0.938856 7.68848 1.04997 7.56626L2.29997 6.13292L2.11663 4.24959C2.09441 4.08292 2.1333 3.93015 2.2333 3.79126C2.3333 3.65237 2.46663 3.56626 2.6333 3.53292L4.46663 3.13292L5.4333 1.49959C5.52219 1.35515 5.64441 1.25792 5.79997 1.20792C5.95552 1.15792 6.11108 1.16626 6.26663 1.23292L7.99997 1.96626L9.7333 1.23292C9.88886 1.16626 10.0444 1.15792 10.2 1.20792C10.3555 1.25792 10.4777 1.35515 10.5666 1.49959L11.5333 3.13292L13.3666 3.53292C13.5333 3.56626 13.6666 3.65237 13.7666 3.79126C13.8666 3.93015 13.9055 4.08292 13.8833 4.24959L13.7 6.13292L14.95 7.56626C15.0611 7.68848 15.1166 7.83292 15.1166 7.99959C15.1166 8.16626 15.0611 8.3107 14.95 8.43292L13.7 9.86626L13.8833 11.7496C13.9055 11.9163 13.8666 12.069 13.7666 12.2079C13.6666 12.3468 13.5333 12.4329 13.3666 12.4663L11.5333 12.8663L10.5666 14.4996C10.4777 14.644 10.3555 14.7413 10.2 14.7913C10.0444 14.8413 9.88886 14.8329 9.7333 14.7663L7.99997 14.0329L6.26663 14.7663C6.11108 14.8329 5.95552 14.8413 5.79997 14.7913C5.64441 14.7413 5.52219 14.644 5.4333 14.4996ZM6.29997 13.2996L7.99997 12.5663L9.7333 13.2996L10.6666 11.6996L12.5 11.2663L12.3333 9.39959L13.5666 7.99959L12.3333 6.56626L12.5 4.69959L10.6666 4.29959L9.69997 2.69959L7.99997 3.43292L6.26663 2.69959L5.3333 4.29959L3.49997 4.69959L3.66663 6.56626L2.4333 7.99959L3.66663 9.39959L3.49997 11.2996L5.3333 11.6996L6.29997 13.2996ZM7.99997 11.3329C8.18886 11.3329 8.34719 11.269 8.47497 11.1413C8.60275 11.0135 8.66663 10.8551 8.66663 10.6663C8.66663 10.4774 8.60275 10.319 8.47497 10.1913C8.34719 10.0635 8.18886 9.99959 7.99997 9.99959C7.81108 9.99959 7.65275 10.0635 7.52497 10.1913C7.39719 10.319 7.3333 10.4774 7.3333 10.6663C7.3333 10.8551 7.39719 11.0135 7.52497 11.1413C7.65275 11.269 7.81108 11.3329 7.99997 11.3329ZM7.99997 8.66626C8.18886 8.66626 8.34719 8.60237 8.47497 8.47459C8.60275 8.34681 8.66663 8.18848 8.66663 7.99959V5.33292C8.66663 5.14404 8.60275 4.9857 8.47497 4.85792C8.34719 4.73015 8.18886 4.66626 7.99997 4.66626C7.81108 4.66626 7.65275 4.73015 7.52497 4.85792C7.39719 4.9857 7.3333 5.14404 7.3333 5.33292V7.99959C7.3333 8.18848 7.39719 8.34681 7.52497 8.47459C7.65275 8.60237 7.81108 8.66626 7.99997 8.66626Z" fill="#B3261E"/>
</g>
</svg>
