<svg width="16" height="16" viewBox="0 0 16 16" fill="none" xmlns="http://www.w3.org/2000/svg">
<g clip-path="url(#clip0_130_7152)">
<path d="M7.99992 7.83333C8.32214 7.83333 8.59725 7.71955 8.82525 7.492C9.05281 7.264 9.16659 6.98889 9.16659 6.66667C9.16659 6.34444 9.05281 6.06933 8.82525 5.84133C8.59725 5.61378 8.32214 5.5 7.99992 5.5C7.6777 5.5 7.40259 5.61378 7.17459 5.84133C6.94703 6.06933 6.83325 6.34444 6.83325 6.66667C6.83325 6.98889 6.94703 7.264 7.17459 7.492C7.40259 7.71955 7.6777 7.83333 7.99992 7.83333ZM7.99992 13.2C9.3777 11.9778 10.4166 10.8082 11.1166 9.69133C11.8166 8.57489 12.1666 7.61111 12.1666 6.8C12.1666 5.53333 11.7639 4.5 10.9586 3.7C10.1528 2.9 9.16659 2.5 7.99992 2.5C6.83325 2.5 5.84703 2.9 5.04125 3.7C4.23592 4.5 3.83325 5.53333 3.83325 6.8C3.83325 7.61111 4.18325 8.57489 4.88325 9.69133C5.58325 10.8082 6.62214 11.9778 7.99992 13.2ZM7.99992 14.3C7.92214 14.3 7.84436 14.2889 7.76659 14.2667C7.68881 14.2444 7.61659 14.2056 7.54992 14.15C5.97214 12.7167 4.7917 11.3889 4.00859 10.1667C3.22503 8.94444 2.83325 7.82222 2.83325 6.8C2.83325 5.18889 3.35281 3.90267 4.39192 2.94133C5.43059 1.98044 6.63325 1.5 7.99992 1.5C9.36659 1.5 10.5695 1.98044 11.6086 2.94133C12.6473 3.90267 13.1666 5.18889 13.1666 6.8C13.1666 7.82222 12.775 8.94444 11.9919 10.1667C11.2084 11.3889 10.0277 12.7167 8.44992 14.15C8.38325 14.2056 8.31103 14.2444 8.23325 14.2667C8.15547 14.2889 8.0777 14.3 7.99992 14.3Z" fill="#111111"/>
</g>
<defs>
<clipPath id="clip0_130_7152">
<rect width="16" height="16" fill="white"/>
</clipPath>
</defs>
</svg>
