<svg preserveAspectRatio="none" width="100%" height="100%" overflow="visible" style="display: block;" viewBox="0 0 10 11" fill="none" xmlns="http://www.w3.org/2000/svg">
<path id="Vetor" fill-rule="evenodd" clip-rule="evenodd" d="M1.88028 9.958C2.0025 10.0416 2.11916 10.0389 2.23028 9.95L4.98028 7.86667L7.73028 9.95C7.84139 10.0389 7.95805 10.0416 8.08028 9.958C8.2025 9.87489 8.24139 9.76667 8.19694 9.63333L7.16361 6.21667L9.83028 4.3C9.9525 4.22222 9.98872 4.11111 9.93894 3.96667C9.88872 3.82222 9.79139 3.75 9.64694 3.75H6.33028L5.26361 0.216667C5.24139 0.138889 5.20516 0.0833332 5.15494 0.0499999C5.10516 0.0166665 5.04694 0 4.98028 0C4.91361 0 4.85539 0.0166665 4.80561 0.0499999C4.75539 0.0833332 4.71916 0.138889 4.69694 0.216667L3.63028 3.75H0.313609C0.169165 3.75 0.0718312 3.82222 0.0216089 3.96667C-0.0281688 4.11111 0.00805345 4.22222 0.130276 4.3L2.79694 6.21667L1.76361 9.63333C1.71916 9.76667 1.75805 9.87489 1.88028 9.958ZM5 6.63187L6.58028 7.85L5.98028 5.81667L7.48028 4.75H5.61361L5 2.7477V6.63187Z" fill="var(--fill-0, #F5B100)"/>
</svg>
