<svg preserveAspectRatio="none" width="100%" height="100%" overflow="visible" style="display: block;" viewBox="0 0 10 11" fill="none" xmlns="http://www.w3.org/2000/svg">
<path id="Vetor" d="M2.23028 9.95C2.11916 10.0389 2.0025 10.0416 1.88028 9.958C1.75805 9.87489 1.71916 9.76667 1.76361 9.63333L2.79694 6.21667L0.130276 4.3C0.00805345 4.22222 -0.0281688 4.11111 0.0216089 3.96667C0.0718312 3.82222 0.169165 3.75 0.313609 3.75H3.63028L4.69694 0.216667C4.71916 0.138889 4.75539 0.0833332 4.80561 0.0499999C4.85539 0.0166665 4.91361 0 4.98028 0C5.04694 0 5.10516 0.0166665 5.15494 0.0499999C5.20516 0.0833332 5.24139 0.138889 5.26361 0.216667L6.33028 3.75H9.64694C9.79139 3.75 9.88872 3.82222 9.93894 3.96667C9.98872 4.11111 9.9525 4.22222 9.83028 4.3L7.16361 6.21667L8.19694 9.63333C8.24139 9.76667 8.2025 9.87489 8.08028 9.958C7.95805 10.0416 7.84139 10.0389 7.73028 9.95L4.98028 7.86667L2.23028 9.95Z" fill="var(--fill-0, #F5B100)"/>
</svg>
