<svg width="16" height="16" viewBox="0 0 16 16" fill="none" xmlns="http://www.w3.org/2000/svg">
<path d="M7.29997 8.46674L6.3333 7.51675C6.21108 7.39452 6.0583 7.33341 5.87497 7.33341C5.69163 7.33341 5.5333 7.40008 5.39997 7.53341C5.27775 7.65563 5.21663 7.81119 5.21663 8.00008C5.21663 8.18897 5.27775 8.34452 5.39997 8.46674L6.8333 9.90008C6.96663 10.0334 7.12219 10.1001 7.29997 10.1001C7.47775 10.1001 7.6333 10.0334 7.76663 9.90008L10.6 7.06675C10.7333 6.93341 10.7972 6.77786 10.7916 6.60008C10.7861 6.4223 10.7222 6.26675 10.6 6.13341C10.4666 6.00008 10.3083 5.93063 10.125 5.92508C9.94163 5.91952 9.7833 5.98341 9.64997 6.11675L7.29997 8.46674ZM5.4333 14.5001L4.46663 12.8667L2.6333 12.4667C2.46663 12.4334 2.3333 12.3473 2.2333 12.2084C2.1333 12.0695 2.09441 11.9167 2.11663 11.7501L2.29997 9.86675L1.04997 8.43341C0.938856 8.31119 0.883301 8.16675 0.883301 8.00008C0.883301 7.83341 0.938856 7.68897 1.04997 7.56675L2.29997 6.13341L2.11663 4.25008C2.09441 4.08341 2.1333 3.93063 2.2333 3.79175C2.3333 3.65286 2.46663 3.56675 2.6333 3.53341L4.46663 3.13341L5.4333 1.50008C5.52219 1.35563 5.64441 1.25841 5.79997 1.20841C5.95552 1.15841 6.11108 1.16675 6.26663 1.23341L7.99997 1.96675L9.7333 1.23341C9.88886 1.16675 10.0444 1.15841 10.2 1.20841C10.3555 1.25841 10.4777 1.35563 10.5666 1.50008L11.5333 3.13341L13.3666 3.53341C13.5333 3.56675 13.6666 3.65286 13.7666 3.79175C13.8666 3.93063 13.9055 4.08341 13.8833 4.25008L13.7 6.13341L14.95 7.56675C15.0611 7.68897 15.1166 7.83341 15.1166 8.00008C15.1166 8.16675 15.0611 8.31119 14.95 8.43341L13.7 9.86675L13.8833 11.7501C13.9055 11.9167 13.8666 12.0695 13.7666 12.2084C13.6666 12.3473 13.5333 12.4334 13.3666 12.4667L11.5333 12.8667L10.5666 14.5001C10.4777 14.6445 10.3555 14.7417 10.2 14.7917C10.0444 14.8417 9.88886 14.8334 9.7333 14.7667L7.99997 14.0334L6.26663 14.7667C6.11108 14.8334 5.95552 14.8417 5.79997 14.7917C5.64441 14.7417 5.52219 14.6445 5.4333 14.5001ZM6.29997 13.3001L7.99997 12.5667L9.7333 13.3001L10.6666 11.7001L12.5 11.2667L12.3333 9.40008L13.5666 8.00008L12.3333 6.56675L12.5 4.70008L10.6666 4.30008L9.69997 2.70008L7.99997 3.43341L6.26663 2.70008L5.3333 4.30008L3.49997 4.70008L3.66663 6.56675L2.4333 8.00008L3.66663 9.40008L3.49997 11.3001L5.3333 11.7001L6.29997 13.3001Z" fill="#009142"/>
</svg>
