<svg preserveAspectRatio="none" width="100%" height="100%" overflow="visible" style="display: block;" viewBox="0 0 29 28" fill="none" xmlns="http://www.w3.org/2000/svg">
<path id="verified" d="M12.8333 14.581L10.9 12.681C10.6556 12.4365 10.35 12.3143 9.98333 12.3143C9.61667 12.3143 9.3 12.4476 9.03333 12.7143C8.78889 12.9587 8.66667 13.2698 8.66667 13.6476C8.66667 14.0254 8.78889 14.3365 9.03333 14.581L11.9 17.4476C12.1667 17.7143 12.4778 17.8476 12.8333 17.8476C13.1889 17.8476 13.5 17.7143 13.7667 17.4476L19.4333 11.781C19.7 11.5143 19.8278 11.2032 19.8167 10.8476C19.8056 10.4921 19.6778 10.181 19.4333 9.91429C19.1667 9.64762 18.85 9.50873 18.4833 9.49762C18.1167 9.48651 17.8 9.61428 17.5333 9.88095L12.8333 14.581ZM9.1 26.6476L7.16667 23.381L3.5 22.581C3.16667 22.5143 2.9 22.3421 2.7 22.0643C2.5 21.7865 2.42222 21.481 2.46667 21.1476L2.83333 17.381L0.333333 14.5143C0.111111 14.2698 0 13.981 0 13.6476C0 13.3143 0.111111 13.0254 0.333333 12.781L2.83333 9.91429L2.46667 6.14762C2.42222 5.81429 2.5 5.50873 2.7 5.23095C2.9 4.95317 3.16667 4.78095 3.5 4.71429L7.16667 3.91429L9.1 0.647619C9.27778 0.35873 9.52222 0.164286 9.83333 0.0642857C10.1444 -0.0357143 10.4556 -0.0190476 10.7667 0.114286L14.2333 1.58095L17.7 0.114286C18.0111 -0.0190476 18.3222 -0.0357143 18.6333 0.0642857C18.9444 0.164286 19.1889 0.35873 19.3667 0.647619L21.3 3.91429L24.9667 4.71429C25.3 4.78095 25.5667 4.95317 25.7667 5.23095C25.9667 5.50873 26.0444 5.81429 26 6.14762L25.6333 9.91429L28.1333 12.781C28.3556 13.0254 28.4667 13.3143 28.4667 13.6476C28.4667 13.981 28.3556 14.2698 28.1333 14.5143L25.6333 17.381L26 21.1476C26.0444 21.481 25.9667 21.7865 25.7667 22.0643C25.5667 22.3421 25.3 22.5143 24.9667 22.581L21.3 23.381L19.3667 26.6476C19.1889 26.9365 18.9444 27.131 18.6333 27.231C18.3222 27.331 18.0111 27.3143 17.7 27.181L14.2333 25.7143L10.7667 27.181C10.4556 27.3143 10.1444 27.331 9.83333 27.231C9.52222 27.131 9.27778 26.9365 9.1 26.6476ZM10.8333 24.2476L14.2333 22.781L17.7 24.2476L19.5667 21.0476L23.2333 20.181L22.9 16.4476L25.3667 13.6476L22.9 10.781L23.2333 7.04762L19.5667 6.24762L17.6333 3.04762L14.2333 4.51429L10.7667 3.04762L8.9 6.24762L5.23333 7.04762L5.56667 10.781L3.1 13.6476L5.56667 16.4476L5.23333 20.2476L8.9 21.0476L10.8333 24.2476Z" fill="var(--fill-0, #E7A63A)"/>
</svg>
