<svg preserveAspectRatio="none" width="100%" height="100%" overflow="visible" style="display: block;" viewBox="0 0 24 24" fill="none" xmlns="http://www.w3.org/2000/svg">
<path id="routine" d="M9.9 14.1C9.36667 13.5667 8.87917 13.0083 8.4375 12.425C7.99583 11.8417 7.59167 11.225 7.225 10.575C7.14167 10.8083 7.0875 11.0458 7.0625 11.2875C7.0375 11.5292 7.025 11.7667 7.025 12C7.025 13.3833 7.50833 14.5583 8.475 15.525C9.44167 16.4917 10.6167 16.975 12 16.975C12.2333 16.975 12.4708 16.9583 12.7125 16.925C12.9542 16.8917 13.1917 16.8417 13.425 16.775C12.775 16.4083 12.1583 16.0042 11.575 15.5625C10.9917 15.1208 10.4333 14.6333 9.9 14.1ZM12.025 19C11.0917 19 10.2 18.825 9.35 18.475C8.5 18.125 7.74167 17.6167 7.075 16.95C6.40833 16.2833 5.9 15.525 5.55 14.675C5.2 13.825 5.025 12.9333 5.025 12C5.025 11.15 5.16667 10.3375 5.45 9.5625C5.73333 8.7875 6.15 8.08333 6.7 7.45C6.91667 7.21667 7.18333 7.1375 7.5 7.2125C7.81667 7.2875 8.04167 7.49167 8.175 7.825C8.525 8.74167 8.9625 9.60833 9.4875 10.425C10.0125 11.2417 10.625 12 11.325 12.7C12.025 13.4 12.7833 14.0125 13.6 14.5375C14.4167 15.0625 15.2833 15.5 16.2 15.85C16.5333 15.9833 16.7375 16.2083 16.8125 16.525C16.8875 16.8417 16.8083 17.1083 16.575 17.325C15.9417 17.875 15.2375 18.2917 14.4625 18.575C13.6875 18.8583 12.875 19 12.025 19ZM17.6 14.2C17.3333 14.1167 17.1417 13.9458 17.025 13.6875C16.9083 13.4292 16.875 13.1583 16.925 12.875C17.075 12.075 17.025 11.2875 16.775 10.5125C16.525 9.7375 16.1083 9.05833 15.525 8.475C14.9417 7.89167 14.2708 7.47917 13.5125 7.2375C12.7542 6.99583 11.9833 6.94167 11.2 7.075C10.9167 7.125 10.65 7.09167 10.4 6.975C10.15 6.85833 9.975 6.66667 9.875 6.4C9.775 6.13333 9.7875 5.875 9.9125 5.625C10.0375 5.375 10.2333 5.21667 10.5 5.15C11.65 4.9 12.8 4.9375 13.95 5.2625C15.1 5.5875 16.1083 6.18333 16.975 7.05C17.825 7.9 18.4167 8.9 18.75 10.05C19.0833 11.2 19.125 12.35 18.875 13.5C18.8083 13.7833 18.65 13.9917 18.4 14.125C18.15 14.2583 17.8833 14.2833 17.6 14.2ZM12 3C11.7167 3 11.4792 2.90417 11.2875 2.7125C11.0958 2.52083 11 2.28333 11 2V1C11 0.716667 11.0958 0.479167 11.2875 0.2875C11.4792 0.0958333 11.7167 0 12 0C12.2833 0 12.5208 0.0958333 12.7125 0.2875C12.9042 0.479167 13 0.716667 13 1V2C13 2.28333 12.9042 2.52083 12.7125 2.7125C12.5208 2.90417 12.2833 3 12 3ZM12 24C11.7167 24 11.4792 23.9042 11.2875 23.7125C11.0958 23.5208 11 23.2833 11 23V22C11 21.7167 11.0958 21.4792 11.2875 21.2875C11.4792 21.0958 11.7167 21 12 21C12.2833 21 12.5208 21.0958 12.7125 21.2875C12.9042 21.4792 13 21.7167 13 22V23C13 23.2833 12.9042 23.5208 12.7125 23.7125C12.5208 23.9042 12.2833 24 12 24ZM18.375 5.65C18.175 5.45 18.075 5.2125 18.075 4.9375C18.075 4.6625 18.175 4.425 18.375 4.225L19.075 3.525C19.2583 3.34167 19.4875 3.25 19.7625 3.25C20.0375 3.25 20.275 3.34167 20.475 3.525C20.675 3.725 20.775 3.9625 20.775 4.2375C20.775 4.5125 20.675 4.75 20.475 4.95L19.775 5.65C19.575 5.85 19.3417 5.95 19.075 5.95C18.8083 5.95 18.575 5.85 18.375 5.65ZM3.525 20.475C3.325 20.275 3.225 20.0375 3.225 19.7625C3.225 19.4875 3.325 19.25 3.525 19.05L4.225 18.35C4.425 18.15 4.65833 18.05 4.925 18.05C5.19167 18.05 5.425 18.15 5.625 18.35C5.825 18.55 5.925 18.7875 5.925 19.0625C5.925 19.3375 5.825 19.575 5.625 19.775L4.925 20.475C4.74167 20.6583 4.5125 20.75 4.2375 20.75C3.9625 20.75 3.725 20.6583 3.525 20.475ZM22 13C21.7167 13 21.4792 12.9042 21.2875 12.7125C21.0958 12.5208 21 12.2833 21 12C21 11.7167 21.0958 11.4792 21.2875 11.2875C21.4792 11.0958 21.7167 11 22 11H23C23.2833 11 23.5208 11.0958 23.7125 11.2875C23.9042 11.4792 24 11.7167 24 12C24 12.2833 23.9042 12.5208 23.7125 12.7125C23.5208 12.9042 23.2833 13 23 13H22ZM1 13C0.716667 13 0.479167 12.9042 0.2875 12.7125C0.0958333 12.5208 0 12.2833 0 12C0 11.7167 0.0958333 11.4792 0.2875 11.2875C0.479167 11.0958 0.716667 11 1 11H2C2.28333 11 2.52083 11.0958 2.7125 11.2875C2.90417 11.4792 3 11.7167 3 12C3 12.2833 2.90417 12.5208 2.7125 12.7125C2.52083 12.9042 2.28333 13 2 13H1ZM20.475 20.475C20.275 20.675 20.0375 20.775 19.7625 20.775C19.4875 20.775 19.25 20.675 19.05 20.475L18.35 19.775C18.15 19.575 18.05 19.3417 18.05 19.075C18.05 18.8083 18.15 18.575 18.35 18.375C18.55 18.175 18.7875 18.075 19.0625 18.075C19.3375 18.075 19.575 18.175 19.775 18.375L20.475 19.075C20.6583 19.2583 20.75 19.4875 20.75 19.7625C20.75 20.0375 20.6583 20.275 20.475 20.475ZM5.65 5.625C5.45 5.825 5.2125 5.925 4.9375 5.925C4.6625 5.925 4.425 5.825 4.225 5.625L3.525 4.925C3.34167 4.74167 3.25 4.5125 3.25 4.2375C3.25 3.9625 3.34167 3.725 3.525 3.525C3.725 3.325 3.9625 3.225 4.2375 3.225C4.5125 3.225 4.75 3.325 4.95 3.525L5.65 4.225C5.85 4.425 5.95 4.65833 5.95 4.925C5.95 5.19167 5.85 5.425 5.65 5.625Z" fill="var(--fill-0, #E7A63A)"/>
</svg>
