<svg preserveAspectRatio="none" width="100%" height="100%" overflow="visible" style="display: block;" viewBox="0 0 20 17" fill="none" xmlns="http://www.w3.org/2000/svg">
<path id="waves" d="M5 15.3C4.18333 15.3 3.53333 15.4833 3.05 15.85C2.56667 16.2167 1.89167 16.475 1.025 16.625C0.741667 16.675 0.5 16.6083 0.3 16.425C0.1 16.2417 0 16.0083 0 15.725C0 15.4417 0.0958333 15.2042 0.2875 15.0125C0.479167 14.8208 0.716667 14.6833 1 14.6C1.6 14.4167 2.16667 14.1625 2.7 13.8375C3.23333 13.5125 4 13.35 5 13.35C5.63333 13.35 6.15417 13.4208 6.5625 13.5625C6.97083 13.7042 7.35 13.8625 7.7 14.0375C8.05 14.2125 8.4 14.375 8.75 14.525C9.1 14.675 9.51667 14.75 10 14.75C10.4833 14.75 10.9 14.675 11.25 14.525C11.6 14.375 11.95 14.2125 12.3 14.0375C12.65 13.8625 13.0333 13.7042 13.45 13.5625C13.8667 13.4208 14.3833 13.35 15 13.35C16 13.35 16.7667 13.5125 17.3 13.8375C17.8333 14.1625 18.4 14.4167 19 14.6C19.2833 14.6833 19.5208 14.8208 19.7125 15.0125C19.9042 15.2042 20 15.4417 20 15.725C20 16.0083 19.9 16.2417 19.7 16.425C19.5 16.6083 19.2583 16.675 18.975 16.625C18.1083 16.475 17.4333 16.2167 16.95 15.85C16.4667 15.4833 15.8167 15.3 15 15.3C14.5333 15.3 14.1292 15.3708 13.7875 15.5125C13.4458 15.6542 13.1042 15.8125 12.7625 15.9875C12.4208 16.1625 12.0375 16.325 11.6125 16.475C11.1875 16.625 10.65 16.7 10 16.7C9.35 16.7 8.8125 16.625 8.3875 16.475C7.9625 16.325 7.57917 16.1625 7.2375 15.9875C6.89583 15.8125 6.55833 15.6542 6.225 15.5125C5.89167 15.3708 5.48333 15.3 5 15.3ZM5 10.85C4.18333 10.85 3.53333 11.0333 3.05 11.4C2.56667 11.7667 1.89167 12.025 1.025 12.175C0.741667 12.225 0.5 12.1583 0.3 11.975C0.1 11.7917 0 11.5583 0 11.275C0 10.9917 0.0958333 10.7542 0.2875 10.5625C0.479167 10.3708 0.716667 10.2333 1 10.15C1.6 9.96667 2.16667 9.7125 2.7 9.3875C3.23333 9.0625 4 8.9 5 8.9C5.63333 8.9 6.15417 8.97083 6.5625 9.1125C6.97083 9.25417 7.35 9.4125 7.7 9.5875C8.05 9.7625 8.4 9.925 8.75 10.075C9.1 10.225 9.51667 10.3 10 10.3C10.4833 10.3 10.9 10.225 11.25 10.075C11.6 9.925 11.95 9.7625 12.3 9.5875C12.65 9.4125 13.0333 9.25417 13.45 9.1125C13.8667 8.97083 14.3833 8.9 15 8.9C16 8.9 16.7667 9.0625 17.3 9.3875C17.8333 9.7125 18.4 9.96667 19 10.15C19.2833 10.2333 19.5208 10.3708 19.7125 10.5625C19.9042 10.7542 20 10.9917 20 11.275C20 11.5583 19.9 11.7917 19.7 11.975C19.5 12.1583 19.2583 12.225 18.975 12.175C18.1083 12.025 17.4333 11.7667 16.95 11.4C16.4667 11.0333 15.8167 10.85 15 10.85C14.5167 10.85 14.1042 10.9208 13.7625 11.0625C13.4208 11.2042 13.0792 11.3625 12.7375 11.5375C12.3958 11.7125 12.0167 11.875 11.6 12.025C11.1833 12.175 10.65 12.25 10 12.25C9.35 12.25 8.8125 12.175 8.3875 12.025C7.9625 11.875 7.57917 11.7125 7.2375 11.5375C6.89583 11.3625 6.55833 11.2042 6.225 11.0625C5.89167 10.9208 5.48333 10.85 5 10.85ZM5 6.4C4.18333 6.4 3.53333 6.58333 3.05 6.95C2.56667 7.31667 1.89167 7.575 1.025 7.725C0.741667 7.775 0.5 7.70833 0.3 7.525C0.1 7.34167 0 7.10833 0 6.825C0 6.54167 0.0958333 6.30417 0.2875 6.1125C0.479167 5.92083 0.716667 5.78333 1 5.7C1.6 5.51667 2.16667 5.2625 2.7 4.9375C3.23333 4.6125 4 4.45 5 4.45C5.63333 4.45 6.15417 4.52083 6.5625 4.6625C6.97083 4.80417 7.35 4.9625 7.7 5.1375C8.05 5.3125 8.4 5.475 8.75 5.625C9.1 5.775 9.51667 5.85 10 5.85C10.4833 5.85 10.9 5.775 11.25 5.625C11.6 5.475 11.95 5.3125 12.3 5.1375C12.65 4.9625 13.0333 4.80417 13.45 4.6625C13.8667 4.52083 14.3833 4.45 15 4.45C16 4.45 16.7667 4.6125 17.3 4.9375C17.8333 5.2625 18.4 5.51667 19 5.7C19.2833 5.78333 19.5208 5.92083 19.7125 6.1125C19.9042 6.30417 20 6.54167 20 6.825C20 7.10833 19.9 7.34167 19.7 7.525C19.5 7.70833 19.2583 7.775 18.975 7.725C18.1083 7.575 17.4333 7.31667 16.95 6.95C16.4667 6.58333 15.8167 6.4 15 6.4C14.5333 6.4 14.1292 6.47083 13.7875 6.6125C13.4458 6.75417 13.1042 6.9125 12.7625 7.0875C12.4208 7.2625 12.0375 7.425 11.6125 7.575C11.1875 7.725 10.65 7.8 10 7.8C9.35 7.8 8.8125 7.725 8.3875 7.575C7.9625 7.425 7.57917 7.2625 7.2375 7.0875C6.89583 6.9125 6.55833 6.75417 6.225 6.6125C5.89167 6.47083 5.48333 6.4 5 6.4ZM5 1.95C4.18333 1.95 3.53333 2.13333 3.05 2.5C2.56667 2.86667 1.89167 3.125 1.025 3.275C0.741667 3.325 0.5 3.25833 0.3 3.075C0.1 2.89167 0 2.65833 0 2.375C0 2.09167 0.0958333 1.85417 0.2875 1.6625C0.479167 1.47083 0.716667 1.33333 1 1.25C1.6 1.06667 2.16667 0.8125 2.7 0.4875C3.23333 0.1625 4 0 5 0C5.63333 0 6.15417 0.0708333 6.5625 0.2125C6.97083 0.354167 7.35 0.5125 7.7 0.6875C8.05 0.8625 8.4 1.025 8.75 1.175C9.1 1.325 9.51667 1.4 10 1.4C10.4833 1.4 10.9 1.325 11.25 1.175C11.6 1.025 11.95 0.8625 12.3 0.6875C12.65 0.5125 13.0333 0.354167 13.45 0.2125C13.8667 0.0708333 14.3833 0 15 0C16 0 16.7667 0.1625 17.3 0.4875C17.8333 0.8125 18.4 1.06667 19 1.25C19.2833 1.33333 19.5208 1.47083 19.7125 1.6625C19.9042 1.85417 20 2.09167 20 2.375C20 2.65833 19.9 2.89167 19.7 3.075C19.5 3.25833 19.2583 3.325 18.975 3.275C18.1083 3.125 17.4333 2.86667 16.95 2.5C16.4667 2.13333 15.8167 1.95 15 1.95C14.5333 1.95 14.1292 2.02083 13.7875 2.1625C13.4458 2.30417 13.1042 2.4625 12.7625 2.6375C12.4208 2.8125 12.0375 2.975 11.6125 3.125C11.1875 3.275 10.65 3.35 10 3.35C9.35 3.35 8.8125 3.275 8.3875 3.125C7.9625 2.975 7.57917 2.8125 7.2375 2.6375C6.89583 2.4625 6.55833 2.30417 6.225 2.1625C5.89167 2.02083 5.48333 1.95 5 1.95Z" fill="var(--fill-0, #E7A63A)"/>
</svg>
