<svg preserveAspectRatio="none" width="100%" height="100%" overflow="visible" style="display: block;" viewBox="0 0 24 24" fill="none" xmlns="http://www.w3.org/2000/svg">
<g id="eco">
<mask id="mask0_119_6411" style="mask-type:alpha" maskUnits="userSpaceOnUse" x="0" y="0" width="24" height="24">
<rect id="Bounding box" width="24" height="24" fill="var(--fill-0, #D9D9D9)"/>
</mask>
<g mask="url(#mask0_119_6411)">
<path id="eco_2" d="M5.4 19.6C4.65 18.85 4.0625 17.9833 3.6375 17C3.2125 16.0167 3 15 3 13.95C3 12.9 3.2 11.8625 3.6 10.8375C4 9.8125 4.65 8.85 5.55 7.95C6.55 6.95 7.9625 6.19167 9.7875 5.675C11.6125 5.15833 13.975 4.94167 16.875 5.025C17.3083 5.04167 17.7083 5.13333 18.075 5.3C18.4417 5.46667 18.7667 5.69167 19.05 5.975C19.3333 6.25833 19.5583 6.5875 19.725 6.9625C19.8917 7.3375 19.9833 7.74167 20 8.175C20.0333 9.54167 19.9958 10.8042 19.8875 11.9625C19.7792 13.1208 19.6042 14.1667 19.3625 15.1C19.1208 16.0333 18.8125 16.8625 18.4375 17.5875C18.0625 18.3125 17.6167 18.9333 17.1 19.45C16.2167 20.3333 15.2792 20.9792 14.2875 21.3875C13.2958 21.7958 12.2833 22 11.25 22C10.1667 22 9.10833 21.7875 8.075 21.3625C7.04167 20.9375 6.15 20.35 5.4 19.6ZM8.2 19.2C8.68333 19.4833 9.17917 19.6875 9.6875 19.8125C10.1958 19.9375 10.7167 20 11.25 20C12.0167 20 12.775 19.8458 13.525 19.5375C14.275 19.2292 14.9917 18.7333 15.675 18.05C15.975 17.75 16.2792 17.3292 16.5875 16.7875C16.8958 16.2458 17.1625 15.5375 17.3875 14.6625C17.6125 13.7875 17.7833 12.7292 17.9 11.4875C18.0167 10.2458 18.0333 8.76667 17.95 7.05C17.1333 7.01667 16.2125 7.00417 15.1875 7.0125C14.1625 7.02083 13.1417 7.1 12.125 7.25C11.1083 7.4 10.1417 7.64167 9.225 7.975C8.30833 8.30833 7.55833 8.76667 6.975 9.35C6.225 10.1 5.70833 10.8417 5.425 11.575C5.14167 12.3083 5 13.0167 5 13.7C5 14.6833 5.1875 15.5458 5.5625 16.2875C5.9375 17.0292 6.26667 17.55 6.55 17.85C7.25 16.5167 8.175 15.2375 9.325 14.0125C10.475 12.7875 11.8167 11.7833 13.35 11C12.15 12.05 11.1042 13.2375 10.2125 14.5625C9.32083 15.8875 8.65 17.4333 8.2 19.2Z" fill="var(--fill-0, #E7A63A)"/>
</g>
</g>
</svg>
