<svg preserveAspectRatio="none" width="100%" height="100%" overflow="visible" style="display: block;" viewBox="0 0 18 16" fill="none" xmlns="http://www.w3.org/2000/svg">
<path id="self_improvement" d="M3.8 16C3.3 16 2.875 15.825 2.525 15.475C2.175 15.125 2 14.7 2 14.2C2 13.85 2.1 13.5208 2.3 13.2125C2.5 12.9042 2.76667 12.6833 3.1 12.55L7 11V8.75C6.2 9.66667 5.3 10.3958 4.3 10.9375C3.3 11.4792 2.21667 11.8167 1.05 11.95C0.766667 11.9833 0.520833 11.9042 0.3125 11.7125C0.104167 11.5208 0 11.2833 0 11C0 10.7167 0.0916667 10.475 0.275 10.275C0.458333 10.075 0.691667 9.95833 0.975 9.925C1.89167 9.79167 2.73333 9.50833 3.5 9.075C4.26667 8.64167 4.96667 8.05 5.6 7.3L6.95 5.7C7.15 5.46667 7.38333 5.29167 7.65 5.175C7.91667 5.05833 8.2 5 8.5 5H9.5C9.8 5 10.0833 5.05833 10.35 5.175C10.6167 5.29167 10.85 5.46667 11.05 5.7L12.4 7.3C13.0333 8.05 13.7333 8.64167 14.5 9.075C15.2667 9.50833 16.1083 9.79167 17.025 9.925C17.3083 9.95833 17.5417 10.075 17.725 10.275C17.9083 10.475 18 10.7167 18 11C18 11.2833 17.8958 11.5208 17.6875 11.7125C17.4792 11.9042 17.2333 11.9833 16.95 11.95C15.7833 11.8167 14.7 11.4792 13.7 10.9375C12.7 10.3958 11.8 9.66667 11 8.75V11L14.9 12.55C15.2333 12.6833 15.5 12.9042 15.7 13.2125C15.9 13.5208 16 13.85 16 14.2C16 14.7 15.825 15.125 15.475 15.475C15.125 15.825 14.7 16 14.2 16H7V15.5C7 15.0667 7.14167 14.7083 7.425 14.425C7.70833 14.1417 8.06667 14 8.5 14H11.5C11.65 14 11.7708 13.9542 11.8625 13.8625C11.9542 13.7708 12 13.65 12 13.5C12 13.35 11.9542 13.2292 11.8625 13.1375C11.7708 13.0458 11.65 13 11.5 13H8.5C7.8 13 7.20833 13.2417 6.725 13.725C6.24167 14.2083 6 14.8 6 15.5V16H3.8ZM9 4C8.45 4 7.97917 3.80417 7.5875 3.4125C7.19583 3.02083 7 2.55 7 2C7 1.45 7.19583 0.979167 7.5875 0.5875C7.97917 0.195833 8.45 0 9 0C9.55 0 10.0208 0.195833 10.4125 0.5875C10.8042 0.979167 11 1.45 11 2C11 2.55 10.8042 3.02083 10.4125 3.4125C10.0208 3.80417 9.55 4 9 4Z" fill="var(--fill-0, #E7A63A)"/>
</svg>
