<svg preserveAspectRatio="none" width="100%" height="100%" overflow="visible" style="display: block;" viewBox="0 0 32 32" fill="none" xmlns="http://www.w3.org/2000/svg">
<g id="shopping_cart">
<mask id="mask0_119_6407" style="mask-type:alpha" maskUnits="userSpaceOnUse" x="0" y="0" width="32" height="32">
<rect id="Bounding box" width="32" height="32" fill="var(--fill-0, #D9D9D9)"/>
</mask>
<g mask="url(#mask0_119_6407)">
<path id="shopping_cart_2" d="M9.33333 29.3333C8.6 29.3333 7.97222 29.0722 7.45 28.55C6.92778 28.0278 6.66667 27.4 6.66667 26.6667C6.66667 25.9333 6.92778 25.3056 7.45 24.7833C7.97222 24.2611 8.6 24 9.33333 24C10.0667 24 10.6944 24.2611 11.2167 24.7833C11.7389 25.3056 12 25.9333 12 26.6667C12 27.4 11.7389 28.0278 11.2167 28.55C10.6944 29.0722 10.0667 29.3333 9.33333 29.3333ZM22.6667 29.3333C21.9333 29.3333 21.3056 29.0722 20.7833 28.55C20.2611 28.0278 20 27.4 20 26.6667C20 25.9333 20.2611 25.3056 20.7833 24.7833C21.3056 24.2611 21.9333 24 22.6667 24C23.4 24 24.0278 24.2611 24.55 24.7833C25.0722 25.3056 25.3333 25.9333 25.3333 26.6667C25.3333 27.4 25.0722 28.0278 24.55 28.55C24.0278 29.0722 23.4 29.3333 22.6667 29.3333ZM8.2 8L11.4 14.6667H20.7333L24.4 8H8.2ZM6.93333 5.33333H26.6C27.1111 5.33333 27.5 5.56111 27.7667 6.01667C28.0333 6.47222 28.0444 6.93333 27.8 7.4L23.0667 15.9333C22.8222 16.3778 22.4944 16.7222 22.0833 16.9667C21.6722 17.2111 21.2222 17.3333 20.7333 17.3333H10.8L9.33333 20H24C24.3778 20 24.6944 20.1278 24.95 20.3833C25.2056 20.6389 25.3333 20.9556 25.3333 21.3333C25.3333 21.7111 25.2056 22.0278 24.95 22.2833C24.6944 22.5389 24.3778 22.6667 24 22.6667H9.33333C8.33333 22.6667 7.57778 22.2278 7.06667 21.35C6.55556 20.4722 6.53333 19.6 7 18.7333L8.8 15.4667L4 5.33333H2.66667C2.28889 5.33333 1.97222 5.20556 1.71667 4.95C1.46111 4.69444 1.33333 4.37778 1.33333 4C1.33333 3.62222 1.46111 3.30556 1.71667 3.05C1.97222 2.79444 2.28889 2.66667 2.66667 2.66667H4.83333C5.07778 2.66667 5.31111 2.73333 5.53333 2.86667C5.75556 3 5.92222 3.18889 6.03333 3.43333L6.93333 5.33333Z" fill="var(--fill-0, white)"/>
</g>
</g>
</svg>
