<svg preserveAspectRatio="none" width="100%" height="100%" overflow="visible" style="display: block;" viewBox="0 0 32 32" fill="none" xmlns="http://www.w3.org/2000/svg">
<g id="facebook 1" clip-path="url(#clip0_119_6512)">
<path id="Area [SIZE:MEDIUM][STATE:DEFAULT][STYLE:STYLE2]" d="M32 16C32 7.16344 24.8366 0 16 0C7.16344 0 0 7.16344 0 16C0 24.8366 7.16344 32 16 32C24.8366 32 32 24.8366 32 16Z" fill="var(--fill-0, #E7A63A)"/>
<g id="Icon [ICON=feather/facebook][SIZE=MEDIUM][STATE=DEFAULT][STYLE=STYLE2]">
<path id="Area [ICON:feather/facebook][SIZE:MEDIUM][STATE:DEFAULT][STYLE:STYLE2]" opacity="0" d="M22.6667 9.33333H9.33333V22.6667H22.6667V9.33333Z" fill="var(--fill-0, #254333)"/>
<g id="Icon">
<path id="c35521ce-121e-422b-a9d5-efd786bf92ed" d="M19.6667 9.33333H17.6667C16.7826 9.33333 15.9348 9.68452 15.3096 10.3096C14.6845 10.9348 14.3333 11.7826 14.3333 12.6667V14.6667H12.3333V17.3333H14.3333V22.6667H17V17.3333H19L19.6667 14.6667H17V12.6667C17 12.4899 17.0702 12.3203 17.1953 12.1953C17.3203 12.0702 17.4899 12 17.6667 12H19.6667V9.33333Z" fill="var(--fill-0, #254333)"/>
</g>
</g>
</g>
<defs>
<clipPath id="clip0_119_6512">
<rect width="32" height="32" fill="white"/>
</clipPath>
</defs>
</svg>
