<svg preserveAspectRatio="none" width="100%" height="100%" overflow="visible" style="display: block;" viewBox="0 0 32 32" fill="none" xmlns="http://www.w3.org/2000/svg">
<g id="Grupo 10">
<path id="Area [SIZE:MEDIUM][STATE:DEFAULT][STYLE:STYLE2]" d="M32 16C32 7.16344 24.8366 0 16 0C7.16344 0 0 7.16344 0 16C0 24.8366 7.16344 32 16 32C24.8366 32 32 24.8366 32 16Z" fill="var(--fill-0, #E7A63A)"/>
<path id="Icon akar-tiktok-fill" d="M20.2413 12.0553C20.1499 12.0083 20.0609 11.9566 19.9747 11.9007C19.7249 11.7356 19.496 11.5411 19.2927 11.3213C18.8933 10.8745 18.6268 10.3249 18.5233 9.73466C18.4856 9.54872 18.4755 9.35823 18.4933 9.16933H16.1787V18.132C16.1787 18.252 16.1787 18.3713 16.174 18.4887C16.174 18.5033 16.174 18.516 16.174 18.5327C16.1749 18.5393 16.1749 18.546 16.174 18.5527V18.558C16.1496 18.8796 16.0466 19.1902 15.874 19.4626C15.7013 19.735 15.4644 19.9607 15.184 20.12C14.8915 20.2866 14.5606 20.3739 14.224 20.3733C13.7082 20.3638 13.2168 20.1523 12.8554 19.7842C12.494 19.4161 12.2916 18.9208 12.2916 18.405C12.2916 17.8891 12.494 17.3939 12.8554 17.0258C13.2168 16.6577 13.7082 16.4462 14.224 16.4367C14.4278 16.4369 14.6303 16.4693 14.824 16.5327V14.1713C14.2337 14.0952 13.634 14.1423 13.0628 14.3096C12.4916 14.4768 11.9613 14.7608 11.5053 15.1433C11.1058 15.4905 10.7698 15.9047 10.5127 16.3673C10.1881 16.9659 10.0125 17.6339 10.0007 18.3147C9.99529 18.838 10.0794 19.3584 10.2493 19.8533V19.8593C10.4023 20.2703 10.6143 20.6568 10.8787 21.0067C11.1662 21.3695 11.5056 21.6881 11.886 21.952V21.946L11.8913 21.952C12.5946 22.4136 13.4168 22.661 14.258 22.664C14.8647 22.6631 15.464 22.5307 16.0147 22.276C16.5581 22.0196 17.0434 21.6548 17.4407 21.204C17.7715 20.8215 18.0348 20.3855 18.2193 19.9147C18.3889 19.44 18.4831 18.9418 18.4987 18.438V13.6813C18.5267 13.698 18.8987 13.948 18.8987 13.948C19.3301 14.2021 19.7951 14.3944 20.28 14.5193C20.7457 14.6266 21.22 14.6917 21.6973 14.714V12.4093C21.1895 12.4163 20.6881 12.2945 20.24 12.0553H20.2413Z" fill="var(--fill-0, #254333)"/>
</g>
</svg>
