<svg preserveAspectRatio="none" width="100%" height="100%" overflow="visible" style="display: block;" viewBox="0 0 32 32" fill="none" xmlns="http://www.w3.org/2000/svg">
<g id="Grupo 9">
<path id="Area [SIZE:MEDIUM][STATE:DEFAULT][STYLE:STYLE2]" d="M32 16C32 7.16344 24.8366 0 16 0C7.16344 0 0 7.16344 0 16C0 24.8366 7.16344 32 16 32C24.8366 32 32 24.8366 32 16Z" fill="var(--fill-0, #E7A63A)"/>
<path id="Caminho 1" d="M7.65006 15.8581L9.52002 10.8398L13.0467 8.33398L17.7067 8.09831L21.2694 10.0176L23.646 13.7292V18.0833L21.2694 21.6035L18.1361 23.3398L14.3254 23.528L11.7853 22.5944L8.29395 23.528L8.98193 19.7552L7.65006 15.8581Z" fill="var(--fill-0, #254333)"/>
<path id="Icon akar-whatsapp-fill" d="M15.8607 22.9527C14.5765 22.9527 13.316 22.6073 12.2113 21.9527L11.9513 21.798L9.23199 22.5107L9.95599 19.866L9.78532 19.5947C8.94093 18.2487 8.56775 16.6604 8.72444 15.0793C8.88112 13.4981 9.5588 12.0139 10.6509 10.8599C11.7431 9.70587 13.1877 8.9475 14.7578 8.70399C16.3279 8.46049 17.9344 8.74565 19.3248 9.51465C20.7152 10.2837 21.8106 11.4929 22.4388 12.9523C23.0671 14.4117 23.1925 16.0385 22.7955 17.5769C22.3984 19.1154 21.5014 20.4783 20.2453 21.4514C18.9893 22.4244 17.4455 22.9526 15.8567 22.9527H15.8607ZM21.9593 9.686C20.4801 8.20709 18.5138 7.31616 16.4266 7.17909C14.3394 7.04202 12.2735 7.66816 10.6135 8.94091C8.95361 10.2137 7.81279 12.0463 7.40349 14.0976C6.99419 16.1489 7.34431 18.279 8.38866 20.0913L7.16532 24.558L11.736 23.358C13.0004 24.047 14.4174 24.408 15.8573 24.408H15.8607C17.5658 24.407 19.2324 23.9007 20.6499 22.953C22.0674 22.0053 23.1723 20.6587 23.8249 19.0834C24.4775 17.5081 24.6486 15.7747 24.3165 14.1023C23.9845 12.4298 23.1642 10.8925 21.9593 9.686Z" fill="var(--fill-0, #254333)"/>
<path id="Icon akar-whatsapp-fill_2" d="M19.792 17.5853C19.576 17.4773 18.5167 16.9567 18.3193 16.884C18.122 16.8113 17.9787 16.7767 17.834 16.9927C17.6893 17.2087 17.278 17.6933 17.1527 17.8367C17.0273 17.98 16.9013 17.9987 16.686 17.8913C16.0509 17.6386 15.4645 17.2777 14.9527 16.8247C14.481 16.3892 14.0766 15.8862 13.7527 15.332C13.6273 15.1167 13.7387 14.9987 13.8467 14.8927C13.944 14.796 14.062 14.6413 14.17 14.5153C14.2588 14.4061 14.3313 14.2846 14.3853 14.1547C14.4143 14.0953 14.4278 14.0297 14.4247 13.9637C14.4215 13.8977 14.4018 13.8337 14.3673 13.7773C14.314 13.6693 13.8833 12.6087 13.7007 12.1773C13.526 11.7573 13.348 11.8147 13.2167 11.8073C13.0853 11.8 12.95 11.8 12.8033 11.8C12.6944 11.8024 12.5872 11.8274 12.4884 11.8733C12.3897 11.9192 12.3014 11.985 12.2293 12.0667C11.9853 12.2977 11.7921 12.5771 11.6623 12.8871C11.5324 13.197 11.4688 13.5307 11.4753 13.8667C11.5473 14.6783 11.8543 15.4514 12.3587 16.0913C13.2827 17.4764 14.5508 18.5975 16.0387 19.3447C16.4397 19.5175 16.8496 19.6688 17.2667 19.798C17.7062 19.9321 18.1711 19.9613 18.624 19.8833C18.924 19.8221 19.2081 19.6994 19.4584 19.5231C19.7088 19.3467 19.9199 19.1205 20.0787 18.8587C20.2193 18.5366 20.2628 18.1805 20.204 17.834C20.1507 17.744 20.004 17.6907 19.7907 17.5827L19.792 17.5853Z" fill="var(--fill-0, #E7A63A)"/>
</g>
</svg>
